<?xml version="1.0" encoding="utf-8"?>
<!-- Generator: Adobe Illustrator 23.0.3, SVG Export Plug-In . SVG Version: 6.00 Build 0)  -->
<svg version="1.1" id="Layer_1" xmlns="http://www.w3.org/2000/svg" xmlns:xlink="http://www.w3.org/1999/xlink" x="0px" y="0px"
	 viewBox="0 0 473.9 473.9" style="enable-background:new 0 0 473.9 473.9;" xml:space="preserve">
<style type="text/css">
	.st0{fill:#49A0AE;}
	.st1{fill:#D9E3E4;}
	.st2{fill:#A2D4DE;}
	.st3{fill:#8EC0C8;}
	.st4{fill:#67B8CB;}
	.st5{fill:#FFFFFF;}
	.st6{fill:#C4E7ED;}
</style>
<circle class="st0" cx="237" cy="237" r="237"/>
<path class="st1" d="M249.1,174.1H120.8l-0.7,56.7c0,0-1.3,0,38.6,0c5.8,0.2,22.4,1.1,27.7,4c11.1,5.9,20.1,7.7,29.8,8.1v0.1
	c0.9,0,1.8,0,2.6,0c0.9,0,1.7,0,2.6,0v-0.1c9.7-0.4,18.6-2.1,29.8-8.1c3.5-1.9,11.9-2.9,18.9-3.5c47.4,2.7,44.6,1.9,44.6,41.2
	c0,0,11,4.3,28.1,4.3c17,0,28.1-4.3,28.1-4.3C370.6,191.5,360.5,174.1,249.1,174.1z"/>
<path class="st2" d="M378.5,280.8c0,6.5-4.5,11.8-10.1,11.8h-51.9c-5.6,0-10.1-5.3-10.1-11.8l0,0c0-6.5,4.5-11.8,10.1-11.8h51.9
	C374,269,378.5,274.3,378.5,280.8L378.5,280.8z"/>
<g>
	<circle class="st1" cx="220.4" cy="197.4" r="52.7"/>
	<path class="st1" d="M244.9,175.4c0,13.5-11,24.5-24.5,24.5l0,0c-13.5,0-24.5-11-24.5-24.5v-35.8c0-13.5,11-24.5,24.5-24.5l0,0
		c13.5,0,24.5,11,24.5,24.5V175.4z"/>
</g>
<g>
	<path class="st3" d="M228.4,122.2c0,0-0.2,3-7.2,3s-9.6-3-9.6-3V92h16.9V122.2z"/>
	<path class="st3" d="M212.9,90c-3.1,0-5.6-2.5-5.6-5.6l0,0c0-3.1,2.5-5.6,5.6-5.6h14.9c3.1,0,5.6,2.5,5.6,5.6l0,0
		c0,3.1-2.5,5.6-5.6,5.6H212.9z"/>
</g>
<path class="st2" d="M262.9,91.6c0,4.1-3,7.5-6.8,7.5h-72c-3.7,0-6.8-3.4-6.8-7.5l0,0c0-4.1,3-7.5,6.8-7.5h72
	C259.9,84.1,262.9,87.4,262.9,91.6L262.9,91.6z"/>
<path class="st4" d="M138.5,250c0,11.2-9,20.3-20.1,20.3l0,0c-11.1,0-20.1-9.1-20.1-20.3v-95.4c0-11.2,9-20.3,20.1-20.3l0,0
	c11.1,0,20.1,9.1,20.1,20.3V250z"/>
<g>
	<path class="st5" d="M360.6,222.4c-7.2-19.3-18.5-31.3-43.3-33.7c0,0,15.2,9.2,24.9,15.2C351,209.5,360.6,222.4,360.6,222.4z"/>
	<path class="st5" d="M261.6,183.3c-7.7-17.2-11.9-25.9-33.2-25.9c0,0,17.7,7.6,20.8,27.4C250.8,195.5,261.6,183.3,261.6,183.3z"/>
</g>
<path class="st6" d="M344.2,313c0,0-18.7,33.7-18.7,46.8c0,10.3,8.4,18.7,18.7,18.7c10.3,0,18.7-8.4,18.7-18.7
	C362.9,347.7,344.2,313,344.2,313z"/>
<path class="st5" d="M342.6,374.2c12.4-0.3,15.2-3.2,16.4-16.4c0,0-3.4,5.2-7.5,9.7C347.8,371.6,342.6,374.2,342.6,374.2z"/>
</svg>
