<?xml version="1.0" encoding="utf-8"?>
<!-- Generator: Adobe Illustrator 23.0.3, SVG Export Plug-In . SVG Version: 6.00 Build 0)  -->
<svg version="1.1" id="Livello_1" xmlns="http://www.w3.org/2000/svg" xmlns:xlink="http://www.w3.org/1999/xlink" x="0px" y="0px"
	 viewBox="0 0 120 120" style="enable-background:new 0 0 120 120;" xml:space="preserve">
<style type="text/css">
	.st0{fill:#4AA0AE;}
	.st1{fill:#D9E3E3;}
	.st2{fill:#A2D5DF;}
	.st3{fill:#8FC0C9;}
	.st4{fill:#69B8CB;}
	.st5{fill:#FFFFFF;}
	.st6{fill:#C5E5EB;}
</style>
<circle class="st0" cx="60" cy="60" r="55"/>
<path class="st1" d="M62.8,45.4H33l-0.2,13.2c0,0-0.3,0,9,0c1.3,0,5.2,0.3,6.4,0.9c2.6,1.4,4.7,1.8,6.9,1.9v0c0.2,0,0.4,0,0.6,0
	c0.2,0,0.4,0,0.6,0v0c2.3-0.1,4.3-0.5,6.9-1.9c0.8-0.4,2.8-0.7,4.4-0.8c11,0.6,10.4,0.4,10.4,9.6c0,0,2.6,1,6.5,1c3.9,0,6.5-1,6.5-1
	C91,49.4,88.7,45.4,62.8,45.4z"/>
<path class="st2" d="M92.8,70.2c0,1.5-1,2.7-2.3,2.7h-12c-1.3,0-2.3-1.2-2.3-2.7l0,0c0-1.5,1-2.7,2.3-2.7h12
	C91.8,67.4,92.8,68.7,92.8,70.2L92.8,70.2z"/>
<g>
	<circle class="st1" cx="56.1" cy="50.8" r="12.2"/>
	<path class="st1" d="M61.8,45.7c0,3.1-2.6,5.7-5.7,5.7l0,0c-3.1,0-5.7-2.6-5.7-5.7v-8.3c0-3.1,2.6-5.7,5.7-5.7l0,0
		c3.1,0,5.7,2.6,5.7,5.7V45.7z"/>
</g>
<g>
	<path class="st3" d="M58,33.4c0,0,0,0.7-1.7,0.7s-2.2-0.7-2.2-0.7v-7H58L58,33.4L58,33.4z"/>
	<path class="st3" d="M54.4,25.9c-0.7,0-1.3-0.6-1.3-1.3l0,0c0-0.7,0.6-1.3,1.3-1.3h3.5c0.7,0,1.3,0.6,1.3,1.3l0,0
		c0,0.7-0.6,1.3-1.3,1.3H54.4z"/>
</g>
<path class="st2" d="M66,26.3c0,1-0.7,1.7-1.6,1.7H47.7c-0.9,0-1.6-0.8-1.6-1.7l0,0c0-1,0.7-1.7,1.6-1.7h16.7
	C65.3,24.5,66,25.3,66,26.3L66,26.3z"/>
<path class="st4" d="M37.1,63c0,2.6-2.1,4.7-4.7,4.7l0,0c-2.6,0-4.7-2.1-4.7-4.7V40.9c0-2.6,2.1-4.7,4.7-4.7l0,0
	c2.6,0,4.7,2.1,4.7,4.7V63z"/>
<g>
	<path class="st5" d="M88.7,56.6c-1.7-4.5-4.3-7.3-10-7.8c0,0,3.5,2.1,5.8,3.5C86.5,53.6,88.7,56.6,88.7,56.6z"/>
	<path class="st5" d="M65.7,47.5c-1.8-4-2.8-6-7.7-6c0,0,4.1,1.8,4.8,6.4C63.2,50.4,65.7,47.5,65.7,47.5z"/>
</g>
<path class="st6" d="M84.9,77.6c0,0-4.3,7.8-4.3,10.9c0,2.4,1.9,4.3,4.3,4.3c2.4,0,4.3-1.9,4.3-4.3C89.2,85.7,84.9,77.6,84.9,77.6z"
	/>
<path class="st5" d="M84.5,91.8c2.9-0.1,3.5-0.7,3.8-3.8c0,0-0.8,1.2-1.7,2.3C85.7,91.2,84.5,91.8,84.5,91.8z"/>
</svg>
