<?xml version="1.0" encoding="utf-8"?>
<!-- Generator: Adobe Illustrator 23.0.3, SVG Export Plug-In . SVG Version: 6.00 Build 0)  -->
<svg version="1.1" id="Livello_1" xmlns="http://www.w3.org/2000/svg" xmlns:xlink="http://www.w3.org/1999/xlink" x="0px" y="0px"
	 viewBox="0 0 120 120" style="enable-background:new 0 0 120 120;" xml:space="preserve">
<style type="text/css">
	.st0{fill:#4DA0AE;}
	.st1{fill:#EBEEED;}
	.st2{fill:#E83B42;}
	.st3{fill:#4D5970;}
	.st4{fill:#1E1C3C;}
</style>
<g>
	<circle class="st0" cx="60" cy="60" r="55"/>
</g>
<polygon class="st1" points="90.3,44.2 90.3,84.7 29.8,84.7 29.8,44.2 60,39.7 "/>
<rect x="80.2" y="35.3" class="st2" width="10" height="8.9"/>
<rect x="29.8" y="35.2" class="st3" width="50.4" height="8.9"/>
<g>
	<path class="st4" d="M48.5,62.4H71c0.8,0,1.5-0.6,1.5-1.5c0-0.8-0.6-1.5-1.5-1.5H48.5c-0.8,0-1.5,0.6-1.5,1.5
		C46.9,61.7,47.6,62.4,48.5,62.4z"/>
	<path class="st4" d="M50.1,66.5h-7.3c-0.8,0-1.5,0.6-1.5,1.5c0,0.8,0.6,1.5,1.5,1.5h7.3c0.8,0,1.5-0.6,1.5-1.5
		C51.7,67.2,50.9,66.5,50.1,66.5z"/>
	<path class="st4" d="M63.7,66.5h-7.3c-0.8,0-1.5,0.6-1.5,1.5c0,0.8,0.6,1.5,1.5,1.5h7.3c0.8,0,1.5-0.6,1.5-1.5S64.5,66.5,63.7,66.5
		z"/>
	<path class="st4" d="M77.2,66.5h-7.3c-0.8,0-1.5,0.6-1.5,1.5c0,0.8,0.6,1.5,1.5,1.5h7.3c0.8,0,1.5-0.6,1.5-1.5S78.1,66.5,77.2,66.5
		z"/>
	<path class="st4" d="M90.3,33.9H29.8c-0.8,0-1.5,0.6-1.5,1.5v49.3c0,0.8,0.6,1.5,1.5,1.5h60.5c0.8,0,1.5-0.6,1.5-1.5V35.3
		C91.7,34.5,91.1,33.9,90.3,33.9z M88.7,42.8h-7v-5.9h7V42.8L88.7,42.8z M78.7,36.9v5.9H31.3v-5.9H78.7z M31.3,83.1V45.8h57.4v37.4
		L31.3,83.1L31.3,83.1z"/>
</g>
</svg>
