<?xml version="1.0" encoding="utf-8"?>
<!-- Generator: Adobe Illustrator 23.0.3, SVG Export Plug-In . SVG Version: 6.00 Build 0)  -->
<svg version="1.1" id="Livello_1" xmlns="http://www.w3.org/2000/svg" xmlns:xlink="http://www.w3.org/1999/xlink" x="0px" y="0px"
	 viewBox="0 0 120 120" style="enable-background:new 0 0 120 120;" xml:space="preserve">
<style type="text/css">
	.st0{fill:#4DA0AE;}
	.st1{fill:#EBEEED;}
	.st2{fill:#E83B42;}
	.st3{fill:#4D5970;}
	.st4{fill:#1E1C3C;}
</style>
<g>
	<circle class="st0" cx="60" cy="60" r="60"/>
</g>
<polygon class="st1" points="93,42.8 93,86.9 27,86.9 27,42.8 60,37.9 "/>
<rect x="82" y="33.1" class="st2" width="10.9" height="9.7"/>
<rect x="27" y="32.9" class="st3" width="55" height="9.7"/>
<g>
	<path class="st4" d="M47.4,62.6h24.6c0.9,0,1.6-0.7,1.6-1.6s-0.7-1.6-1.6-1.6H47.4c-0.9,0-1.6,0.7-1.6,1.6
		C45.7,61.9,46.5,62.6,47.4,62.6z"/>
	<path class="st4" d="M49.2,67.1h-8c-0.9,0-1.6,0.7-1.6,1.6c0,0.9,0.7,1.6,1.6,1.6h8c0.9,0,1.6-0.7,1.6-1.6
		C50.9,67.8,50.1,67.1,49.2,67.1z"/>
	<path class="st4" d="M64,67.1h-8c-0.9,0-1.6,0.7-1.6,1.6c0,0.9,0.7,1.6,1.6,1.6h8c0.9,0,1.6-0.7,1.6-1.6
		C65.6,67.8,64.9,67.1,64,67.1z"/>
	<path class="st4" d="M78.8,67.1h-8c-0.9,0-1.6,0.7-1.6,1.6c0,0.9,0.7,1.6,1.6,1.6h8c0.9,0,1.6-0.7,1.6-1.6
		C80.4,67.8,79.7,67.1,78.8,67.1z"/>
	<path class="st4" d="M93,31.5H27c-0.9,0-1.6,0.7-1.6,1.6v53.8c0,0.9,0.7,1.6,1.6,1.6H93c0.9,0,1.6-0.7,1.6-1.6V33.1
		C94.6,32.2,93.9,31.5,93,31.5z M91.3,41.2h-7.6v-6.4h7.6L91.3,41.2C91.3,41.2,91.3,41.2,91.3,41.2z M80.4,34.8v6.4H28.7v-6.4H80.4z
		 M28.7,85.2V44.5h62.6v40.8L28.7,85.2L28.7,85.2z"/>
</g>
</svg>
