<?xml version="1.0" encoding="utf-8"?>
<!-- Generator: Adobe Illustrator 23.0.3, SVG Export Plug-In . SVG Version: 6.00 Build 0)  -->
<svg version="1.1" id="Livello_1" xmlns="http://www.w3.org/2000/svg" xmlns:xlink="http://www.w3.org/1999/xlink" x="0px" y="0px"
	 viewBox="0 0 120 120" style="enable-background:new 0 0 120 120;" xml:space="preserve">
<style type="text/css">
	.st0{fill:#4DA0AE;}
	.st1{fill:#020203;}
	.st2{fill:#FFFFFF;}
</style>
<g>
	<circle class="st0" cx="60" cy="60" r="60"/>
</g>
<g>
	<path class="st1" d="M23.2,43.7c-0.5,0.3-1,0.7-1.5,1.1c-0.3,0.3-0.6,0.6-0.8,1c-0.5,0.8-0.9,1.6-1,2.5l0,0.2H9.1l-5.3-4.8H23.2z"
		/>
	<path class="st1" d="M32.6,48.5H20.9c0.2-0.8,0.5-1.5,0.9-2.1c1.1-1.6,2.9-2.6,5-2.6C29.6,43.7,32,45.8,32.6,48.5z"/>
	<polygon class="st1" points="37.7,46.1 39.1,48.5 36.3,48.5 	"/>
	<polygon class="st1" points="47.4,48.5 41.8,48.5 39.1,43.7 39.1,43.7 44.6,43.7 44.6,43.7 	"/>
	<rect x="78.8" y="43.7" class="st1" width="8.4" height="4.8"/>
	<path class="st1" d="M23.2,55.7h-6.1L17,55.6l-5.2-4.7h8.1l0,0.2c0.2,0.9,0.5,1.7,1,2.5c0.2,0.3,0.5,0.7,0.8,1
		C22.2,55,22.7,55.4,23.2,55.7z"/>
	<path class="st1" d="M26.7,50.9v4.8c-2.1,0-3.9-1.1-5-2.6c-0.4-0.6-0.7-1.4-0.9-2.1H26.7z"/>
	<polygon class="st1" points="30.8,58.1 28,62.9 25,62.9 21.8,59.9 19.7,58.1 	"/>
	<path class="st1" d="M19.9,48.5l-0.2,1h2.1V50h-2.1l0.2,1l0,0.2c0.2,0.9,0.5,1.7,1,2.5c0.2,0.3,0.5,0.7,0.8,1v5.4l-2-1.8l-2.6-2.4
		L17,55.6V43.7h4.8v1.1c-0.3,0.3-0.6,0.6-0.8,1c-0.5,0.8-0.9,1.6-1,2.5L19.9,48.5z"/>
	<path class="st1" d="M20.9,48.5c0.2-0.8,0.5-1.5,0.9-2.1v2.1H20.9z"/>
	<path class="st1" d="M20.9,50.9h0.9v2.1C21.3,52.4,21,51.7,20.9,50.9z"/>
	<g>
		<path class="st1" d="M20.9,50.9c0.2,0.8,0.5,1.5,0.9,2.1c1.1,1.6,2.9,2.6,5,2.6c2.9,0,5.3-2.1,5.9-4.8H20.9z M26.7,43.7
			c-2.1,0-3.9,1-5,2.6c-0.4,0.6-0.7,1.4-0.9,2.1h11.7C32,45.8,29.6,43.7,26.7,43.7z"/>
		<path class="st1" d="M26.7,43.7c-2.1,0-3.9,1-5,2.6v-1.5c0.4-0.4,0.9-0.8,1.5-1.1H26.7z"/>
		<path class="st1" d="M21.8,44.9v1.5c-0.4,0.6-0.7,1.4-0.9,2.1h-1l0-0.2c0.2-0.9,0.5-1.7,1-2.5C21.2,45.5,21.5,45.2,21.8,44.9z"/>
		<polygon class="st1" points="21.8,48.5 21.8,49.5 19.7,49.5 19.9,48.5 		"/>
		<polygon class="st1" points="21.8,50 21.8,50.9 19.9,50.9 19.7,50 		"/>
		<path class="st1" d="M21.8,53.1v1.5c-0.3-0.3-0.6-0.6-0.8-1c-0.5-0.8-0.9-1.6-1-2.5l0-0.2h1C21,51.7,21.3,52.4,21.8,53.1z"/>
		<path class="st1" d="M26.7,55.7h-3.5c-0.5-0.3-1-0.7-1.5-1.1v-1.5C22.8,54.7,24.7,55.7,26.7,55.7z"/>
	</g>
	<path class="st1" d="M32.7,49.7c0,0.1,0,0.2,0,0.2c0,0.3,0,0.6-0.1,1h-6c0.6,0,1.1-0.4,1.2-1c0-0.1,0-0.2,0-0.2s0-0.2,0-0.2
		c-0.1-0.5-0.6-1-1.2-1h6c0.1,0.3,0.1,0.6,0.1,1C32.7,49.6,32.7,49.6,32.7,49.7z"/>
	<polygon class="st1" points="51.5,55.7 51.2,55.7 51.2,55.1 	"/>
	<polygon class="st1" points="55.6,62.9 53.6,62.9 53.6,59.4 	"/>
	<polygon class="st1" points="58.4,43.7 58.4,62.9 57.7,61.7 55,56.9 53.6,54.6 53.6,43.7 	"/>
	<rect x="68.2" y="43.7" class="st1" width="4.8" height="19.2"/>
	<polygon class="st1" points="81.1,43.7 81.1,56 80.4,57.2 78.3,60.7 77.1,62.9 76.3,62.9 76.3,43.7 	"/>
	<polygon class="st1" points="36.3,58.1 33.5,62.9 28,62.9 30.8,58.1 	"/>
	<polygon class="st1" points="39.9,50 40.4,50.9 37.8,55.5 36.3,58.1 30.8,58.1 36.3,48.5 37.7,46.1 39.1,48.5 39.7,49.7 39.9,50 	
		"/>
	<polygon class="st1" points="44.6,43.7 41.8,48.5 41.8,48.5 41.8,48.5 39.1,43.7 39.1,43.7 44.6,43.7 	"/>
	<g>
		<polygon class="st1" points="55.6,62.9 50.1,62.9 47.3,58.1 46,55.7 43.2,50.9 41.8,48.5 41.8,48.5 39.1,43.7 39.1,43.7 
			44.6,43.7 44.6,43.7 47.4,48.5 48.7,50.9 51.2,55.1 51.5,55.7 52.9,58.1 53.6,59.4 		"/>
	</g>
	<polygon class="st1" points="99.9,48.5 97.1,48.5 98.5,46.1 98.7,46.4 	"/>
	<polygon class="st1" points="108.2,48.5 102.7,48.5 100.1,44 100.1,44 99.9,43.7 99.9,43.7 105.4,43.7 105.4,43.7 	"/>
	<polygon class="st1" points="101.3,50.9 98.7,55.5 97.1,58.1 91.6,58.1 97.1,48.5 98.5,46.1 98.7,46.4 99.9,48.5 100.6,49.7 
		100.7,50 100.7,50 	"/>
	<polygon class="st1" points="105.4,43.7 102.7,48.5 102.7,48.5 102.7,48.5 100.1,44 100.1,44 99.9,43.7 99.9,43.7 105.4,43.7 	"/>
	<g>
		<polygon class="st1" points="116.5,62.9 111,62.9 108.2,58.1 106.8,55.7 104,50.9 102.7,48.5 102.7,48.5 100.1,44 100.1,44 
			99.9,43.7 99.9,43.7 105.4,43.7 105.4,43.7 108.2,48.5 109.6,50.9 112,55.1 112.3,55.7 113.7,58.1 114.4,59.4 		"/>
	</g>
	<polygon class="st1" points="89.2,43.7 86.9,47.8 86.9,47.8 86.8,47.8 86.4,48.5 82.4,48.5 82.4,43.7 	"/>
	<polygon class="st1" points="97.1,58.1 96.8,58.6 95.7,60.7 94.8,62.2 94.4,62.9 87,62.9 89.3,58.8 89.7,58.1 	"/>
	<g>
		<g>
			<polygon class="st1" points="96.4,43.7 96.4,43.7 93.6,48.5 93.6,48.5 93.6,48.5 92.3,50.9 89.5,55.7 88.1,58.1 88.1,58.1 
				85.3,62.9 79.8,62.9 81.8,59.3 82.4,58.4 82.6,58.1 82.6,58.1 84,55.7 84.3,55.1 86.7,50.9 88.1,48.5 88.1,48.5 90.9,43.7 
				90.9,43.7 90.9,43.7 96.4,43.7 			"/>
			<path class="st2" d="M82.4,62.9L82.4,62.9l0.7,0v0H82.4z M82.4,58.1v0.3l0.2-0.3H82.4z"/>
			<polygon class="st1" points="90.9,43.7 88.1,48.5 88.1,48.5 86.4,48.5 86.8,47.8 86.9,47.8 86.9,47.7 89.2,43.7 			"/>
			<polygon class="st1" points="89.8,58.1 89.4,58.8 89.3,58.9 87,62.9 83.1,62.9 83.1,62.9 85.3,62.9 88.1,58.1 			"/>
		</g>
	</g>
	<polygon class="st1" points="71.7,62.9 66.2,62.9 63.4,58.1 62,55.7 59.3,50.9 58.4,49.4 57.9,48.5 57.9,48.5 55.1,43.7 55.1,43.7 
		60.6,43.7 60.7,43.7 63.4,48.5 64.8,50.9 67.6,55.7 68.2,56.8 68.9,58.1 	"/>
</g>
<g>
	<path class="st1" d="M46.4,69.5v4.1l-0.2-0.3l-0.8-1.4l-0.4-0.7v-3.1h1.3l0,0.1c-0.1,0.3-0.2,0.5-0.3,0.7c-0.1,0.1-0.1,0.2-0.2,0.3
		c-0.1,0.1-0.3,0.2-0.4,0.3H46.4z"/>
	<polygon class="st1" points="41.2,69.9 41.3,70.1 40.6,71.4 40.1,72.2 38.5,72.2 40.1,69.5 40.5,68.8 40.9,69.5 41.1,69.8 
		41.1,69.9 	"/>
	<polygon class="st1" points="45.6,73.6 44.1,73.6 43.3,72.2 42.9,71.5 42.1,70.1 41.7,69.5 41.7,69.5 40.9,68.1 40.9,68.1 
		42.5,68.1 42.5,68.1 43.3,69.5 43.7,70.1 44.4,71.3 44.5,71.5 44.8,72.2 45.1,72.5 	"/>
	<polygon class="st1" points="81.8,68.1 81,69.5 80.6,70.1 80.2,70.8 79.8,71.5 79.4,72.2 79.4,72.2 78.6,73.6 77.1,73.6 77.6,72.5 
		77.8,72.2 78.2,71.5 78.3,71.3 78.6,70.8 79,70.1 79.4,69.5 80.2,68.1 	"/>
	<polygon class="st1" points="80.2,70.8 79.8,71.5 79.4,72.2 79.4,72.2 79.4,72.2 79,71.5 78.6,70.8 78.2,70.1 77.8,69.5 77.8,69.5 
		77.1,68.1 78.6,68.1 79.4,69.5 79.8,70.1 	"/>
	<polygon class="st1" points="53.5,69.9 53.7,70.1 53,71.4 52.5,72.2 50.9,72.2 52.5,69.5 52.9,68.8 53.3,69.5 53.5,69.8 53.5,69.9 
			"/>
	<g>
		<polygon class="st1" points="58,73.6 56.5,73.6 55.7,72.2 55.3,71.5 54.5,70.1 54.1,69.5 54.1,69.5 53.3,68.1 53.3,68.1 
			54.9,68.1 54.9,68.1 55.7,69.5 56.1,70.1 56.8,71.3 56.9,71.5 57.2,72.2 57.5,72.5 		"/>
	</g>
	<path class="st1" d="M46.4,68.1v1.4h-1c0.2-0.1,0.3-0.2,0.4-0.3c0.1-0.1,0.2-0.2,0.2-0.3C46.2,68.6,46.3,68.4,46.4,68.1L46.4,68.1
		L46.4,68.1z"/>
	<path class="st1" d="M65,69.5v4.1l-0.2-0.3L64,71.8l-0.4-0.7v-3.1H65l0,0.1c-0.1,0.3-0.2,0.5-0.3,0.7c-0.1,0.1-0.1,0.2-0.2,0.3
		c-0.1,0.1-0.3,0.2-0.4,0.3H65z"/>
	<path class="st1" d="M65,68.1v1.4h-1c0.2-0.1,0.3-0.2,0.4-0.3c0.1-0.1,0.2-0.2,0.2-0.3C64.8,68.6,64.9,68.4,65,68.1L65,68.1
		L65,68.1z"/>
	<path class="st1" d="M59.1,69.5v4.1l-0.2-0.3l-0.8-1.4l-0.4-0.7v-3.1H59l0,0.1c-0.1,0.3-0.2,0.5-0.3,0.7c-0.1,0.1-0.1,0.2-0.2,0.3
		c-0.1,0.1-0.3,0.2-0.4,0.3H59.1z"/>
	<path class="st1" d="M59.1,68.1v1.4h-1c0.2-0.1,0.3-0.2,0.4-0.3c0.1-0.1,0.2-0.2,0.2-0.3C58.9,68.6,59,68.4,59.1,68.1L59.1,68.1
		L59.1,68.1z"/>
	<polygon class="st1" points="50.9,69.5 46.4,69.5 46.4,68.1 49.4,68.1 	"/>
	<polygon class="st1" points="75.8,68.8 75.8,69.5 70.8,69.5 70.8,68.1 74.8,68.1 	"/>
	<polygon class="st1" points="69.6,69.5 65,69.5 65,68.1 68,68.1 	"/>
	<polygon class="st1" points="69.6,73.5 65,73.5 65,72.2 68,72.2 	"/>
	<polygon class="st1" points="69.6,71.5 65,71.5 65,70.1 68,70.1 	"/>
	<polygon class="st1" points="61.6,69.5 59.1,69.5 59.1,68.1 60.7,68.1 	"/>
	<polygon class="st1" points="50.9,73.6 46.4,73.6 46.4,72.2 49.4,72.2 	"/>
	<polygon class="st1" points="63.2,73.6 59.1,73.6 59.1,72.2 61.9,72.2 	"/>
	<polygon class="st1" points="64.2,73.6 62.6,73.6 61.8,72.2 61.4,71.5 60.6,70.1 60.2,69.5 60.2,69.5 59.4,68.1 59.4,68.1 61,68.1 
		61,68.1 61.8,69.5 62.2,70.1 62.9,71.3 63,71.5 63.4,72.2 63.6,72.5 	"/>
	<polygon class="st1" points="71.7,68.1 71.7,71.6 71.5,71.9 70.9,72.9 70.5,73.5 70.3,73.5 70.3,68.1 	"/>
	<polygon class="st1" points="75.8,68.1 75.8,73.5 75.6,73.5 75.3,72.9 74.7,71.9 74.5,71.6 74.5,68.1 	"/>
</g>
</svg>
