<?xml version="1.0" encoding="utf-8"?>
<!-- Generator: Adobe Illustrator 23.0.3, SVG Export Plug-In . SVG Version: 6.00 Build 0)  -->
<svg version="1.1" id="Livello_1" xmlns="http://www.w3.org/2000/svg" xmlns:xlink="http://www.w3.org/1999/xlink" x="0px" y="0px"
	 viewBox="0 0 120 120" style="enable-background:new 0 0 120 120;" xml:space="preserve">
<style type="text/css">
	.st0{fill:#4DA0AE;}
	.st1{fill:#020203;}
	.st2{fill:#FFFFFF;}
</style>
<g>
	<circle class="st0" cx="60" cy="60" r="55"/>
</g>
<g>
	<path class="st1" d="M26.3,45.1c-0.5,0.3-0.9,0.6-1.4,1c-0.3,0.3-0.5,0.5-0.7,0.9c-0.5,0.7-0.8,1.5-0.9,2.3v0.2h-9.9l-4.9-4.4H26.3
		z"/>
	<path class="st1" d="M34.9,49.5H24.2c0.2-0.7,0.5-1.4,0.8-1.9c1-1.5,2.7-2.4,4.6-2.4C32.1,45.1,34.3,47,34.9,49.5z"/>
	<polygon class="st1" points="39.6,47.3 40.8,49.5 38.3,49.5 	"/>
	<polygon class="st1" points="48.5,49.5 43.3,49.5 40.8,45.1 40.8,45.1 45.9,45.1 45.9,45.1 	"/>
	<rect x="77.2" y="45.1" class="st1" width="7.7" height="4.4"/>
	<path class="st1" d="M26.3,56.1h-5.6L20.6,56l-4.8-4.3h7.4v0.2c0.2,0.8,0.5,1.6,0.9,2.3c0.2,0.3,0.5,0.6,0.7,0.9
		C25.4,55.4,25.8,55.8,26.3,56.1z"/>
	<path class="st1" d="M29.5,51.7v4.4c-1.9,0-3.6-1-4.6-2.4c-0.4-0.5-0.6-1.3-0.8-1.9L29.5,51.7L29.5,51.7z"/>
	<polygon class="st1" points="33.2,58.3 30.7,62.7 27.9,62.7 25,59.9 23.1,58.3 	"/>
	<path class="st1" d="M23.2,49.5l-0.2,0.9H25v0.5h-1.9l0.2,0.9v0.2c0.2,0.8,0.5,1.6,0.9,2.3c0.2,0.3,0.5,0.6,0.7,0.9v5l-1.8-1.6
		l-2.4-2.2L20.6,56V45.1H25v1c-0.3,0.3-0.6,0.5-0.7,0.9c-0.5,0.7-0.8,1.5-0.9,2.3L23.2,49.5z"/>
	<path class="st1" d="M24.2,49.5c0.2-0.7,0.5-1.4,0.8-1.9v1.9H24.2z"/>
	<path class="st1" d="M24.2,51.7H25v1.9C24.5,53,24.3,52.4,24.2,51.7z"/>
	<g>
		<path class="st1" d="M24.2,51.7c0.2,0.7,0.5,1.4,0.8,1.9c1,1.5,2.7,2.4,4.6,2.4c2.7,0,4.9-1.9,5.4-4.4L24.2,51.7L24.2,51.7z
			 M29.5,45.1c-1.9,0-3.6,0.9-4.6,2.4c-0.4,0.5-0.6,1.3-0.8,1.9h10.7C34.3,47,32.1,45.1,29.5,45.1z"/>
		<path class="st1" d="M29.5,45.1c-1.9,0-3.6,0.9-4.6,2.4v-1.4c0.4-0.4,0.8-0.7,1.4-1H29.5z"/>
		<path class="st1" d="M25,46.2v1.4c-0.4,0.5-0.6,1.3-0.8,1.9h-0.9v-0.2c0.2-0.8,0.5-1.6,0.9-2.3C24.4,46.7,24.7,46.4,25,46.2z"/>
		<polygon class="st1" points="25,49.5 25,50.4 23.1,50.4 23.2,49.5 		"/>
		<polygon class="st1" points="25,50.8 25,51.7 23.2,51.7 23.1,50.8 		"/>
		<path class="st1" d="M25,53.7V55c-0.3-0.3-0.6-0.5-0.7-0.9c-0.5-0.7-0.8-1.5-0.9-2.3v-0.2h0.9C24.3,52.4,24.5,53,25,53.7z"/>
		<path class="st1" d="M29.5,56.1h-3.2c-0.5-0.3-0.9-0.6-1.4-1v-1.4C25.9,55.1,27.6,56.1,29.5,56.1z"/>
	</g>
	<path class="st1" d="M35,50.6c0,0.1,0,0.2,0,0.2c0,0.3,0,0.5-0.1,0.9h-5.5c0.6,0,1-0.4,1.1-0.9c0-0.1,0-0.2,0-0.2v-0.2
		c-0.1-0.5-0.5-0.9-1.1-0.9h5.5C35,49.7,35,50,35,50.4C35,50.5,35,50.5,35,50.6z"/>
	<polygon class="st1" points="52.2,56.1 51.9,56.1 51.9,55.5 	"/>
	<polygon class="st1" points="56,62.7 54.1,62.7 54.1,59.5 	"/>
	<polygon class="st1" points="58.5,45.1 58.5,62.7 57.9,61.6 55.4,57.2 54.1,55 54.1,45.1 	"/>
	<rect x="67.5" y="45.1" class="st1" width="4.4" height="17.6"/>
	<polygon class="st1" points="79.3,45.1 79.3,56.3 78.7,57.4 76.8,60.6 75.7,62.7 74.9,62.7 74.9,45.1 	"/>
	<polygon class="st1" points="38.3,58.3 35.7,62.7 30.7,62.7 33.2,58.3 	"/>
	<polygon class="st1" points="41.6,50.8 42,51.7 39.6,55.9 38.3,58.3 33.2,58.3 38.3,49.5 39.6,47.3 40.8,49.5 41.4,50.6 	"/>
	<polygon class="st1" points="45.9,45.1 43.3,49.5 43.3,49.5 43.3,49.5 40.8,45.1 40.8,45.1 	"/>
	<g>
		<polygon class="st1" points="56,62.7 50.9,62.7 48.4,58.3 47.2,56.1 44.6,51.7 43.3,49.5 43.3,49.5 40.8,45.1 40.8,45.1 
			45.9,45.1 45.9,45.1 48.5,49.5 49.6,51.7 51.9,55.5 52.2,56.1 53.5,58.3 54.1,59.5 		"/>
	</g>
	<polygon class="st1" points="96.6,49.5 94,49.5 95.3,47.3 95.5,47.5 	"/>
	<polygon class="st1" points="104.2,49.5 99.1,49.5 96.8,45.3 96.8,45.3 96.6,45.1 96.6,45.1 101.6,45.1 101.6,45.1 	"/>
	<polygon class="st1" points="97.9,51.7 95.5,55.9 94,58.3 89,58.3 94,49.5 95.3,47.3 95.5,47.5 96.6,49.5 97.2,50.6 97.3,50.8 
		97.3,50.8 	"/>
	<polygon class="st1" points="101.6,45.1 99.1,49.5 99.1,49.5 99.1,49.5 96.8,45.3 96.8,45.3 96.6,45.1 96.6,45.1 	"/>
	<g>
		<polygon class="st1" points="111.8,62.7 106.8,62.7 104.2,58.3 102.9,56.1 100.3,51.7 99.1,49.5 99.1,49.5 96.8,45.3 96.8,45.3 
			96.6,45.1 96.6,45.1 101.6,45.1 101.6,45.1 104.2,49.5 105.5,51.7 107.7,55.5 107.9,56.1 109.2,58.3 109.9,59.5 		"/>
	</g>
	<polygon class="st1" points="86.8,45.1 84.7,48.8 84.7,48.8 84.6,48.8 84.2,49.5 80.5,49.5 80.5,45.1 	"/>
	<polygon class="st1" points="94,58.3 93.7,58.7 92.7,60.6 91.9,62 91.5,62.7 84.8,62.7 86.9,58.9 87.2,58.3 	"/>
	<g>
		<g>
			<polygon class="st1" points="93.4,45.1 93.4,45.1 90.8,49.5 90.8,49.5 90.8,49.5 89.6,51.7 87,56.1 85.8,58.3 85.8,58.3 
				83.2,62.7 78.2,62.7 80,59.4 80.5,58.5 80.7,58.3 80.7,58.3 82,56.1 82.3,55.5 84.5,51.7 85.8,49.5 85.8,49.5 88.3,45.1 
				88.3,45.1 88.3,45.1 			"/>
			<path class="st2" d="M80.5,62.7L80.5,62.7h0.6l0,0H80.5z M80.5,58.3v0.3l0.2-0.3H80.5z"/>
			<polygon class="st1" points="88.3,45.1 85.8,49.5 85.8,49.5 84.2,49.5 84.6,48.8 84.7,48.8 84.7,48.7 86.8,45.1 			"/>
			<polygon class="st1" points="87.3,58.3 87,58.9 86.9,59 84.8,62.7 81.2,62.7 81.2,62.7 83.2,62.7 85.8,58.3 			"/>
		</g>
	</g>
	<polygon class="st1" points="70.7,62.7 65.7,62.7 63.1,58.3 61.8,56.1 59.4,51.7 58.5,50.3 58.1,49.5 58.1,49.5 55.5,45.1 
		55.5,45.1 60.5,45.1 60.6,45.1 63.1,49.5 64.4,51.7 67,56.1 67.5,57.1 68.2,58.3 	"/>
</g>
<g>
	<path class="st1" d="M47.5,68.7v3.8l-0.2-0.3l-0.7-1.3l-0.4-0.6v-2.8h1.2v0.1c-0.1,0.3-0.2,0.5-0.3,0.6c-0.1,0.1-0.1,0.2-0.2,0.3
		c-0.1,0.1-0.3,0.2-0.4,0.3H47.5z"/>
	<polygon class="st1" points="42.8,69.1 42.9,69.3 42.2,70.5 41.8,71.2 40.3,71.2 41.8,68.7 42.1,68.1 42.5,68.7 42.7,69 42.7,69.1 
			"/>
	<polygon class="st1" points="46.8,72.5 45.4,72.5 44.7,71.2 44.3,70.5 43.6,69.3 43.2,68.7 43.2,68.7 42.5,67.4 42.5,67.4 44,67.4 
		44,67.4 44.7,68.7 45.1,69.3 45.7,70.4 45.8,70.5 46.1,71.2 46.3,71.5 	"/>
	<polygon class="st1" points="80,67.4 79.3,68.7 78.9,69.3 78.5,69.9 78.2,70.5 77.8,71.2 77.8,71.2 77,72.5 75.7,72.5 76.1,71.5 
		76.3,71.2 76.7,70.5 76.8,70.4 77,69.9 77.4,69.3 77.8,68.7 78.5,67.4 	"/>
	<polygon class="st1" points="78.5,69.9 78.2,70.5 77.8,71.2 77.8,71.2 77.8,71.2 77.4,70.5 77,69.9 76.7,69.3 76.3,68.7 76.3,68.7 
		75.7,67.4 77,67.4 77.8,68.7 78.2,69.3 	"/>
	<polygon class="st1" points="54,69.1 54.2,69.3 53.6,70.5 53.1,71.2 51.7,71.2 53.1,68.7 53.5,68.1 53.9,68.7 54,69 	"/>
	<g>
		<polygon class="st1" points="58.2,72.5 56.8,72.5 56.1,71.2 55.7,70.5 55,69.3 54.6,68.7 54.6,68.7 53.9,67.4 53.9,67.4 
			55.3,67.4 55.3,67.4 56.1,68.7 56.4,69.3 57.1,70.4 57.2,70.5 57.4,71.2 57.7,71.5 		"/>
	</g>
	<path class="st1" d="M47.5,67.4v1.3h-0.9c0.2-0.1,0.3-0.2,0.4-0.3c0.1-0.1,0.2-0.2,0.2-0.3C47.4,67.9,47.4,67.7,47.5,67.4
		L47.5,67.4L47.5,67.4z"/>
	<path class="st1" d="M64.6,68.7v3.8l-0.2-0.3l-0.7-1.4l-0.4-0.6v-2.8h1.3v0.1c-0.1,0.3-0.2,0.5-0.3,0.6c-0.1,0.1-0.1,0.2-0.2,0.3
		c-0.1,0.1-0.3,0.2-0.4,0.3L64.6,68.7L64.6,68.7z"/>
	<path class="st1" d="M64.6,67.4v1.3h-0.9c0.2-0.1,0.3-0.2,0.4-0.3c0.1-0.1,0.2-0.2,0.2-0.3C64.4,67.9,64.5,67.7,64.6,67.4
		L64.6,67.4L64.6,67.4z"/>
	<path class="st1" d="M59.2,68.7v3.8L59,72.2l-0.7-1.3l-0.4-0.6v-2.8h1.2v0.1c-0.1,0.3-0.2,0.5-0.3,0.6c-0.1,0.1-0.1,0.2-0.2,0.3
		c-0.1,0.1-0.3,0.2-0.4,0.3H59.2z"/>
	<path class="st1" d="M59.2,67.4v1.3h-0.9c0.2-0.1,0.3-0.2,0.4-0.3s0.2-0.2,0.2-0.3C59,67.9,59.1,67.7,59.2,67.4L59.2,67.4
		L59.2,67.4z"/>
	<polygon class="st1" points="51.7,68.7 47.5,68.7 47.5,67.4 50.3,67.4 	"/>
	<polygon class="st1" points="74.5,68.1 74.5,68.7 69.9,68.7 69.9,67.4 73.6,67.4 	"/>
	<polygon class="st1" points="68.8,68.7 64.6,68.7 64.6,67.4 67.3,67.4 	"/>
	<polygon class="st1" points="68.8,72.4 64.6,72.4 64.6,71.2 67.3,71.2 	"/>
	<polygon class="st1" points="68.8,70.5 64.6,70.5 64.6,69.3 67.3,69.3 	"/>
	<polygon class="st1" points="61.5,68.7 59.2,68.7 59.2,67.4 60.6,67.4 	"/>
	<polygon class="st1" points="51.7,72.5 47.5,72.5 47.5,71.2 50.3,71.2 	"/>
	<polygon class="st1" points="62.9,72.5 59.2,72.5 59.2,71.2 61.7,71.2 	"/>
	<polygon class="st1" points="63.8,72.5 62.4,72.5 61.6,71.2 61.3,70.5 60.5,69.3 60.2,68.7 60.2,68.7 59.5,67.4 59.5,67.4 
		60.9,67.4 60.9,67.4 61.6,68.7 62,69.3 62.7,70.4 62.8,70.5 63.1,71.2 63.3,71.5 	"/>
	<polygon class="st1" points="70.7,67.4 70.7,70.6 70.5,70.9 70,71.8 69.6,72.4 69.4,72.4 69.4,67.4 	"/>
	<polygon class="st1" points="74.5,67.4 74.5,72.4 74.3,72.4 74,71.8 73.5,70.9 73.3,70.6 73.3,67.4 	"/>
</g>
</svg>
