<?xml version="1.0" encoding="utf-8"?>
<!-- Generator: Adobe Illustrator 23.0.3, SVG Export Plug-In . SVG Version: 6.00 Build 0)  -->
<svg version="1.1" id="Livello_1" xmlns="http://www.w3.org/2000/svg" xmlns:xlink="http://www.w3.org/1999/xlink" x="0px" y="0px"
	 viewBox="0 0 120 120" style="enable-background:new 0 0 120 120;" xml:space="preserve">
<style type="text/css">
	.st0{fill:#4CA0AE;}
	.st1{fill:#F0F0F0;}
	.st2{fill:#FFFFFF;}
	.st3{fill:#F8F7F7;}
</style>
<g>
	<circle class="st0" cx="60" cy="60" r="55"/>
	<g>
		<path class="st1" d="M88,51.2C86.9,41,78.3,33.1,67.9,33.1c-1.9,0-3.8,0.3-5.6,0.8c7.8,2.2,13.7,9,14.5,17.2
			c4.3,1.7,7.3,5.7,7.3,10.5c0,6.3-5.1,11.4-11.6,11.4c6.3,0,11,0,11.2,0c6.3,0,11.5-5,11.5-11.4C95.3,56.9,92.3,52.9,88,51.2z"/>
		<path class="st2" d="M84.1,61.7c0-4.9-3-9-7.3-10.6c-0.8-8.3-6.7-14.9-14.4-17.2c-3.6,1-6.8,3-9.3,5.7c-1.5-0.5-3.1-0.9-4.8-0.9
			c-6.8,0-12.4,5.1-13.1,11.7c-6,0.5-10.5,5.2-10.5,11.3C24.7,68,29.8,73,36.3,73c0.3,0,22.4,0,36.4,0C79,73.1,84.1,68.1,84.1,61.7z
			"/>
		<path class="st2" d="M82.2,84c0,2.1-1.7,3.8-3.8,3.8c-2.1,0-3.8-1.7-3.8-3.8c0-2.1,3.8-6,3.8-6S82.2,81.9,82.2,84"/>
		<path class="st3" d="M78.3,78.1v9.7c2.1,0,3.8-1.7,3.8-3.8C82.2,81.9,78.3,78.1,78.3,78.1"/>
		<path class="st2" d="M65,84c0,2.1-1.7,3.8-3.8,3.8c-2.1,0-3.8-1.7-3.8-3.8c0-2.1,3.8-6,3.8-6S65,81.9,65,84"/>
		<path class="st3" d="M61.1,78.1v9.7c2.1,0,3.8-1.7,3.8-3.8C65,81.9,61.1,78.1,61.1,78.1"/>
		<path class="st2" d="M47.6,84c0,2.1-1.7,3.8-3.8,3.8c-2.1,0-3.8-1.7-3.8-3.8c0-2.1,3.8-6,3.8-6S47.6,81.9,47.6,84"/>
		<path class="st3" d="M43.9,78.1v9.7c2.1,0,3.8-1.7,3.8-3.8C47.6,81.9,43.9,78.1,43.9,78.1"/>
	</g>
</g>
</svg>
