<?xml version="1.0" encoding="utf-8"?>
<!-- Generator: Adobe Illustrator 23.0.3, SVG Export Plug-In . SVG Version: 6.00 Build 0)  -->
<svg version="1.1" id="Livello_1" xmlns="http://www.w3.org/2000/svg" xmlns:xlink="http://www.w3.org/1999/xlink" x="0px" y="0px"
	 viewBox="0 0 120 120" style="enable-background:new 0 0 120 120;" xml:space="preserve">
<style type="text/css">
	.st0{fill:#4CA0AE;}
	.st1{fill:#F0F0F0;}
	.st2{fill:#FFFFFF;}
	.st3{fill:#F8F7F7;}
</style>
<g>
	<circle class="st0" cx="60" cy="60" r="60"/>
	<g>
		<path class="st1" d="M90.5,50.4C89.3,39.3,80,30.7,68.6,30.7c-2.1,0-4.2,0.3-6.1,0.9C71,34,77.4,41.4,78.3,50.4
			c4.7,1.8,8,6.2,8,11.5c0,6.9-5.6,12.4-12.6,12.4c6.9,0,12,0,12.2,0c6.9,0,12.6-5.4,12.6-12.4C98.5,56.6,95.2,52.2,90.5,50.4z"/>
		<path class="st2" d="M86.3,61.9c0-5.3-3.3-9.8-8-11.6c-0.9-9-7.3-16.3-15.7-18.8c-3.9,1.1-7.4,3.3-10.1,6.2c-1.6-0.6-3.4-1-5.2-1
			c-7.4,0-13.5,5.6-14.3,12.8c-6.5,0.5-11.5,5.7-11.5,12.3c0,6.9,5.6,12.4,12.6,12.4c0.3,0,24.4,0,39.7,0
			C80.7,74.3,86.3,68.8,86.3,61.9z"/>
		<path class="st2" d="M84.2,86.2c0,2.3-1.9,4.1-4.1,4.1c-2.3,0-4.1-1.9-4.1-4.1c0-2.3,4.1-6.5,4.1-6.5S84.2,83.9,84.2,86.2"/>
		<path class="st3" d="M80,79.7v10.6c2.3,0,4.1-1.9,4.1-4.1C84.2,83.9,80,79.7,80,79.7"/>
		<path class="st2" d="M65.4,86.2c0,2.3-1.9,4.1-4.1,4.1c-2.3,0-4.1-1.9-4.1-4.1c0-2.3,4.1-6.5,4.1-6.5S65.4,83.9,65.4,86.2"/>
		<path class="st3" d="M61.2,79.7v10.6c2.3,0,4.1-1.9,4.1-4.1C65.4,83.9,61.2,79.7,61.2,79.7"/>
		<path class="st2" d="M46.5,86.2c0,2.3-1.9,4.1-4.1,4.1c-2.3,0-4.1-1.9-4.1-4.1c0-2.3,4.1-6.5,4.1-6.5S46.5,83.9,46.5,86.2"/>
		<path class="st3" d="M42.4,79.7v10.6c2.3,0,4.1-1.9,4.1-4.1C46.5,83.9,42.4,79.7,42.4,79.7"/>
	</g>
</g>
</svg>
