<?xml version="1.0" encoding="utf-8"?>
<!-- Generator: Adobe Illustrator 23.0.3, SVG Export Plug-In . SVG Version: 6.00 Build 0)  -->
<svg version="1.1" id="Livello_1" xmlns="http://www.w3.org/2000/svg" xmlns:xlink="http://www.w3.org/1999/xlink" x="0px" y="0px"
	 viewBox="0 0 110 110" style="enable-background:new 0 0 110 110;" xml:space="preserve">
<style type="text/css">
	.st0{fill:#4DA0AE;}
	.st1{fill:#EA6081;}
	.st2{fill:#4D4D4D;}
</style>
<g>
	<circle class="st0" cx="55" cy="55" r="55"/>
</g>
<g id="XMLID_34_">
	<g>
		<path class="st1" d="M91.8,50.7c0,2.9-1.1,5.5-3.2,7.5c-1.9,1.9-4.6,3-7.3,3c-1.8,0-3.5-0.5-5.2-1.4l-11.1-6.4v-3.4l12.6,7.3
			c1.1,0.7,2.4,1.1,3.6,1.1l0,0c1.8,0,3.8-0.8,5.2-2.1c1.4-1.4,2.2-3.3,2.2-5.3c0-5.1-4.4-7.4-7.4-7.4c-1.2,0-2.5,0.3-3.6,1.1
			l-8,4.6l-3.1-1.7l9.6-5.5c1.6-1,3.3-1.4,5.2-1.4C86.4,40.3,91.8,44.3,91.8,50.7z"/>
		<path class="st1" d="M92.9,38.8c3.3,3.1,5,7.3,5,11.9c0,5.9-3.1,11.3-8.2,14.3c-5.2,3-11.3,3-16.5,0L65,60.3v-3.4l9.6,5.5
			c2.1,1.2,4.4,1.8,6.7,1.8c3.4,0,6.9-1.4,9.4-3.8c2.7-2.5,4.1-5.9,4.1-9.7c0-8.3-7-13.5-13.5-13.5c-2.3,0-4.6,0.6-6.7,1.8L65,44.6
			v-3.4l8.1-4.7c2.6-1.4,5.4-2.2,8.2-2.2C85.6,34.1,89.8,35.9,92.9,38.8z"/>
		<path class="st1" d="M62.1,39.5v42.1c0,0.7-0.6,1.2-1.2,1.2h-0.2c-0.7,0-1.2-0.6-1.2-1.2V61.9V39.5c0-0.7,0.6-1.2,1.2-1.2h0.2
			C61.5,38.3,62.1,38.8,62.1,39.5z"/>
		<path class="st1" d="M56.3,39.5v22.4c0,0.7-0.6,1.2-1.2,1.2h-0.2c-0.7,0-1.2-0.6-1.2-1.2V39.5c0-0.7,0.6-1.2,1.2-1.2h0.2
			C55.8,38.3,56.3,38.8,56.3,39.5z"/>
		<path class="st1" d="M50.6,39.5v22.4c0,0.7-0.6,1.2-1.2,1.2h-0.2c-0.7,0-1.2-0.6-1.2-1.2V39.5c0-0.7,0.6-1.2,1.2-1.2h0.2
			C50,38.3,50.6,38.8,50.6,39.5z"/>
		<path class="st1" d="M44.9,49.7v3.4l-11.1,6.4c-1.6,1-3.3,1.4-5.2,1.4c-5,0-10.4-4-10.4-10.4s5.5-10.4,10.4-10.4
			c1.8,0,3.5,0.5,5.2,1.4l9.5,5.5l-3.1,1.7l-8-4.6c-1.1-0.7-2.4-1.1-3.6-1.1c-3,0-7.4,2.4-7.4,7.4s4.4,7.4,7.4,7.4
			c1.2,0,2.5-0.3,3.6-1.1L44.9,49.7z"/>
		<path class="st1" d="M44.9,56.8v3.4l-8,4.7c-2.6,1.4-5.4,2.2-8.2,2.2c-4.2,0-8.4-1.7-11.5-4.7c-3.3-3.1-5-7.3-5-11.9
			c0-5.9,3.1-11.3,8.2-14.3s11.3-3,16.5,0L45,41v3.4l-9.6-5.5c-2.1-1.2-4.4-1.8-6.7-1.8c-6.5,0-13.5,5.2-13.5,13.5s7,13.5,13.5,13.5
			c2.3,0,4.6-0.6,6.7-1.8L44.9,56.8z"/>
		<path class="st2" d="M95,36.6c3.8,3.6,5.9,8.7,5.9,14.1c0,7.1-3.6,13.4-9.8,16.9c-3.1,1.7-6.4,2.7-9.8,2.7c-3.3,0-6.7-0.9-9.8-2.7
			L65,63.8v17.8c0,2.4-1.9,4.3-4.3,4.3h-0.2c-2.4,0-4.3-1.9-4.3-4.3V66c-0.4,0.1-0.9,0.2-1.2,0.2h-0.2c-1.1,0-2-0.4-2.8-1.1
			c-0.8,0.7-1.7,1.1-2.8,1.1h-0.2c-1.7,0-3.3-1.1-3.9-2.6l-6.9,4c-3,1.7-6.3,2.7-9.8,2.7c-5,0-9.9-2-13.6-5.5
			C11.1,61.1,9,56.1,9,50.8c0-7.1,3.6-13.4,9.8-16.9s13.4-3.5,19.5,0l6.9,4c0.7-1.5,2.2-2.6,3.9-2.6h0.2c1.1,0,2,0.4,2.8,1.1
			c0.8-0.7,1.7-1.1,2.8-1.1H55c1.1,0,2,0.4,2.8,1.1c0.8-0.7,1.7-1.1,2.8-1.1h0.2c1.7,0,3.3,1.1,3.9,2.6l6.9-4
			c3.2-1.8,6.5-2.8,9.9-2.8C86.4,31.1,91.3,33.1,95,36.6z M97.9,50.7c0-4.5-1.8-8.7-5-11.9c-3.1-3-7.3-4.7-11.5-4.7
			c-2.9,0-5.6,0.8-8.2,2.2L65.1,41v3.4l9.6-5.5c2.1-1.2,4.4-1.8,6.7-1.8c6.5,0,13.5,5.2,13.5,13.5c0,3.7-1.4,7.2-4.1,9.7
			c-2.5,2.4-5.9,3.8-9.4,3.8c-2.3,0-4.6-0.6-6.7-1.8l-9.6-5.5v3.4l8.1,4.7c5.2,3,11.3,3,16.5,0C94.8,62,97.9,56.6,97.9,50.7z
			 M88.7,58.2c2-1.9,3.2-4.6,3.2-7.5c0-6.4-5.5-10.4-10.4-10.4c-1.8,0-3.5,0.5-5.2,1.4l-9.6,5.5l3.1,1.7l8-4.6
			c1.1-0.7,2.4-1.1,3.6-1.1c3,0,7.4,2.4,7.4,7.4c0,2.1-0.8,3.9-2.2,5.3c-1.3,1.3-3.3,2.1-5.2,2.1l0,0c-1.2,0-2.5-0.3-3.6-1.1
			l-12.6-7.3v3.4l11.1,6.4c1.6,1,3.3,1.4,5.2,1.4C84.1,61.1,86.8,60.1,88.7,58.2z M84.5,53.8c0.9-0.8,1.2-1.8,1.2-3.1
			c0-3.3-3-4.3-4.3-4.3c-0.8,0-1.4,0.2-2.1,0.6l-6.5,3.7l6.5,3.7c0.7,0.4,1.4,0.6,2.1,0.6l0,0C82.5,55,83.7,54.5,84.5,53.8z
			 M62.1,81.6V39.5c0-0.7-0.6-1.2-1.2-1.2h-0.2c-0.7,0-1.2,0.6-1.2,1.2v22.4v19.8c0,0.7,0.6,1.2,1.2,1.2h0.2
			C61.5,82.9,62.1,82.4,62.1,81.6z M56.3,61.9V39.5c0-0.7-0.6-1.2-1.2-1.2h-0.2c-0.7,0-1.2,0.6-1.2,1.2v22.4c0,0.7,0.6,1.2,1.2,1.2
			h0.2C55.8,63.1,56.3,62.6,56.3,61.9z M50.6,61.9V39.5c0-0.7-0.6-1.2-1.2-1.2h-0.2c-0.7,0-1.2,0.6-1.2,1.2v22.4
			c0,0.7,0.6,1.2,1.2,1.2h0.2C50,63.1,50.6,62.6,50.6,61.9z M44.9,60.3v-3.4l-9.6,5.5c-2.1,1.2-4.4,1.8-6.7,1.8
			c-6.5,0-13.5-5.2-13.5-13.5s7-13.5,13.5-13.5c2.3,0,4.6,0.6,6.7,1.8l9.6,5.5v-3.4l-8-4.7c-5.2-3-11.3-3-16.5,0
			c-5.2,3-8.2,8.3-8.2,14.3c0,4.5,1.8,8.7,5,11.9c3.1,3,7.3,4.7,11.5,4.7c2.9,0,5.6-0.8,8.2-2.2L44.9,60.3z M44.9,53.3v-3.4
			l-12.6,7.3c-1.1,0.7-2.4,1.1-3.6,1.1c-3,0-7.4-2.4-7.4-7.4s4.4-7.4,7.4-7.4c1.2,0,2.5,0.3,3.6,1.1l8,4.6l3.1-1.7l-9.5-5.5
			c-1.6-1-3.3-1.4-5.2-1.4c-5,0-10.4,4-10.4,10.4s5.5,10.4,10.4,10.4c1.8,0,3.5-0.5,5.2-1.4L44.9,53.3z M30.7,54.4l6.5-3.7L30.7,47
			c-0.7-0.4-1.4-0.6-2.1-0.6c-1.3,0-4.3,1.1-4.3,4.3s3,4.3,4.3,4.3C29.4,55,30,54.8,30.7,54.4z"/>
	</g>
</g>
</svg>
