<?xml version="1.0" encoding="utf-8"?>
<!-- Generator: Adobe Illustrator 23.0.3, SVG Export Plug-In . SVG Version: 6.00 Build 0)  -->
<svg version="1.1" id="Livello_1" xmlns="http://www.w3.org/2000/svg" xmlns:xlink="http://www.w3.org/1999/xlink" x="0px" y="0px"
	 viewBox="0 0 115 115" style="enable-background:new 0 0 115 115;" xml:space="preserve">
<style type="text/css">
	.st0{fill:#4DA0AE;}
	.st1{fill:#EA6081;}
	.st2{fill:#4D4D4D;}
</style>
<g>
	<circle class="st0" cx="57.5" cy="57.5" r="57.5"/>
</g>
<g id="XMLID_34_">
	<g>
		<path class="st1" d="M96,53c0,3-1.2,5.8-3.3,7.8c-2,2-4.8,3.1-7.6,3.1c-1.9,0-3.7-0.5-5.4-1.5l-11.6-6.7v-3.6l13.2,7.6
			c1.2,0.7,2.5,1.1,3.8,1.1l0,0c1.9,0,4-0.8,5.4-2.2c1.5-1.5,2.3-3.4,2.3-5.5c0-5.3-4.6-7.7-7.7-7.7c-1.3,0-2.6,0.3-3.8,1.1
			l-8.4,4.8l-3.2-1.8l10-5.8c1.7-1,3.5-1.5,5.4-1.5C90.3,42.1,96,46.3,96,53z"/>
		<path class="st1" d="M97.1,40.6c3.4,3.2,5.2,7.6,5.2,12.4c0,6.2-3.2,11.8-8.6,14.9s-11.8,3.1-17.2,0L68,63v-3.6l10,5.8
			c2.2,1.3,4.6,1.9,7,1.9c3.6,0,7.2-1.5,9.8-4c2.8-2.6,4.3-6.2,4.3-10.1c0-8.7-7.3-14.1-14.1-14.1c-2.4,0-4.8,0.6-7,1.9l-10,5.8V43
			l8.5-4.9c2.7-1.5,5.6-2.3,8.6-2.3C89.5,35.7,93.9,37.5,97.1,40.6z"/>
		<path class="st1" d="M64.9,41.3v44c0,0.7-0.6,1.3-1.3,1.3h-0.2c-0.7,0-1.3-0.6-1.3-1.3V64.7V41.3c0-0.7,0.6-1.3,1.3-1.3h0.2
			C64.3,40,64.9,40.6,64.9,41.3z"/>
		<path class="st1" d="M58.9,41.3v23.4c0,0.7-0.6,1.3-1.3,1.3h-0.2c-0.7,0-1.3-0.6-1.3-1.3V41.3c0-0.7,0.6-1.3,1.3-1.3h0.2
			C58.3,40,58.9,40.6,58.9,41.3z"/>
		<path class="st1" d="M52.9,41.3v23.4c0,0.7-0.6,1.3-1.3,1.3h-0.2c-0.7,0-1.3-0.6-1.3-1.3V41.3c0-0.7,0.6-1.3,1.3-1.3h0.2
			C52.3,40,52.9,40.6,52.9,41.3z"/>
		<path class="st1" d="M46.9,52v3.6l-11.6,6.7c-1.7,1-3.5,1.5-5.4,1.5c-5.2,0-10.9-4.2-10.9-10.9S24.7,42,29.9,42
			c1.9,0,3.7,0.5,5.4,1.5l9.9,5.7L42,51l-8.4-4.8c-1.2-0.7-2.5-1.1-3.8-1.1c-3.1,0-7.7,2.5-7.7,7.7s4.6,7.7,7.7,7.7
			c1.3,0,2.6-0.3,3.8-1.1L46.9,52z"/>
		<path class="st1" d="M46.9,59.4V63l-8.4,4.9c-2.7,1.5-5.6,2.3-8.6,2.3c-4.4,0-8.8-1.8-12-4.9c-3.4-3.2-5.2-7.6-5.2-12.4
			c0-6.2,3.2-11.8,8.6-14.9c5.4-3.1,11.8-3.1,17.2,0l8.5,4.9v3.6l-10-5.8c-2.2-1.3-4.6-1.9-7-1.9c-6.8,0-14.1,5.4-14.1,14.1
			S23.2,67,30,67c2.4,0,4.8-0.6,7-1.9L46.9,59.4z"/>
		<path class="st2" d="M99.3,38.3c4,3.8,6.2,9.1,6.2,14.7c0,7.4-3.8,14-10.2,17.7c-3.2,1.8-6.7,2.8-10.2,2.8s-7-0.9-10.2-2.8l-6.9-4
			v18.6c0,2.5-2,4.5-4.5,4.5h-0.2c-2.5,0-4.5-2-4.5-4.5V69c-0.4,0.1-0.9,0.2-1.3,0.2h-0.2c-1.1,0-2.1-0.4-2.9-1.1
			c-0.8,0.7-1.8,1.1-2.9,1.1h-0.2c-1.8,0-3.4-1.1-4.1-2.7L40,70.7c-3.1,1.8-6.6,2.8-10.2,2.8c-5.2,0-10.4-2.1-14.2-5.7
			c-4-3.9-6.2-9.1-6.2-14.7c0-7.4,3.8-14,10.2-17.7s14-3.7,20.4,0l7.2,4.2c0.7-1.6,2.3-2.7,4.1-2.7h0.2c1.1,0,2.1,0.4,2.9,1.1
			c0.8-0.7,1.8-1.1,2.9-1.1h0.2c1.1,0,2.1,0.4,2.9,1.1c0.8-0.7,1.8-1.1,2.9-1.1h0.2c1.8,0,3.4,1.1,4.1,2.7l7.2-4.2
			c3.3-1.9,6.8-2.9,10.3-2.9C90.3,32.5,95.5,34.6,99.3,38.3z M102.4,53c0-4.7-1.9-9.1-5.2-12.4c-3.2-3.1-7.6-4.9-12-4.9
			c-3,0-5.9,0.8-8.6,2.3l-8.5,4.9v3.6l10-5.8c2.2-1.3,4.6-1.9,7-1.9c6.8,0,14.1,5.4,14.1,14.1c0,3.9-1.5,7.5-4.3,10.1
			c-2.6,2.5-6.2,4-9.8,4c-2.4,0-4.8-0.6-7-1.9l-10-5.8v3.6l8.5,4.9c5.4,3.1,11.8,3.1,17.2,0C99.1,64.8,102.4,59.2,102.4,53z
			 M92.7,60.8c2.1-2,3.3-4.8,3.3-7.8c0-6.7-5.7-10.9-10.9-10.9c-1.9,0-3.7,0.5-5.4,1.5l-10,5.8l3.2,1.8l8.4-4.8
			c1.2-0.7,2.5-1.1,3.8-1.1c3.1,0,7.7,2.5,7.7,7.7c0,2.2-0.8,4.1-2.3,5.5c-1.4,1.4-3.5,2.2-5.4,2.2l0,0c-1.3,0-2.6-0.3-3.8-1.1
			L68.1,52v3.6l11.6,6.7c1.7,1,3.5,1.5,5.4,1.5C87.9,63.9,90.7,62.8,92.7,60.8z M88.3,56.2c0.9-0.8,1.3-1.9,1.3-3.2
			c0-3.4-3.1-4.5-4.5-4.5c-0.8,0-1.5,0.2-2.2,0.6L76.1,53l6.8,3.9c0.7,0.4,1.5,0.6,2.2,0.6l0,0C86.2,57.5,87.5,57,88.3,56.2z
			 M64.9,85.3v-44c0-0.7-0.6-1.3-1.3-1.3h-0.2c-0.7,0-1.3,0.6-1.3,1.3v23.4v20.7c0,0.7,0.6,1.3,1.3,1.3h0.2
			C64.3,86.7,64.9,86.1,64.9,85.3z M58.9,64.7V41.3c0-0.7-0.6-1.3-1.3-1.3h-0.2c-0.7,0-1.3,0.6-1.3,1.3v23.4c0,0.7,0.6,1.3,1.3,1.3
			h0.2C58.3,66,58.9,65.4,58.9,64.7z M52.9,64.7V41.3c0-0.7-0.6-1.3-1.3-1.3h-0.2c-0.7,0-1.3,0.6-1.3,1.3v23.4
			c0,0.7,0.6,1.3,1.3,1.3h0.2C52.3,66,52.9,65.4,52.9,64.7z M46.9,63v-3.6l-10,5.8c-2.2,1.3-4.6,1.9-7,1.9
			c-6.8,0-14.1-5.4-14.1-14.1s7.3-14.1,14.1-14.1c2.4,0,4.8,0.6,7,1.9l10,5.8V43l-8.4-4.9c-5.4-3.1-11.8-3.1-17.2,0
			s-8.6,8.7-8.6,14.9c0,4.7,1.9,9.1,5.2,12.4c3.2,3.1,7.6,4.9,12,4.9c3,0,5.9-0.8,8.6-2.3L46.9,63z M46.9,55.7v-3.6l-13.2,7.6
			c-1.2,0.7-2.5,1.1-3.8,1.1c-3.1,0-7.7-2.5-7.7-7.7s4.6-7.7,7.7-7.7c1.3,0,2.6,0.3,3.8,1.1l8.4,4.8l3.2-1.8l-9.9-5.7
			c-1.7-1-3.5-1.5-5.4-1.5c-5.2,0-10.9,4.2-10.9,10.9S24.8,64.1,30,64.1c1.9,0,3.7-0.5,5.4-1.5L46.9,55.7z M32.1,56.9l6.8-3.9
			l-6.8-3.9c-0.7-0.4-1.5-0.6-2.2-0.6c-1.4,0-4.5,1.1-4.5,4.5s3.1,4.5,4.5,4.5C30.7,57.5,31.4,57.3,32.1,56.9z"/>
	</g>
</g>
</svg>
