<?xml version="1.0" encoding="utf-8"?>
<!-- Generator: Adobe Illustrator 23.0.3, SVG Export Plug-In . SVG Version: 6.00 Build 0)  -->
<svg version="1.1" id="Livello_1" xmlns="http://www.w3.org/2000/svg" xmlns:xlink="http://www.w3.org/1999/xlink" x="0px" y="0px"
	 viewBox="0 0 120 120" style="enable-background:new 0 0 120 120;" xml:space="preserve">
<style type="text/css">
	.st0{fill:#4DA0AE;}
	.st1{fill:#EA6081;}
	.st2{fill:#4D4D4D;}
</style>
<g>
	<circle class="st0" cx="60" cy="60" r="60"/>
</g>
<g id="XMLID_34_">
	<g>
		<path class="st1" d="M98.5,55.5c0,3-1.2,5.8-3.3,7.8c-2,2-4.8,3.1-7.6,3.1c-1.9,0-3.7-0.5-5.4-1.5l-11.6-6.7v-3.6l13.2,7.6
			c1.2,0.7,2.5,1.1,3.8,1.1h0c1.9,0,4-0.8,5.4-2.2c1.5-1.5,2.3-3.4,2.3-5.5c0-5.3-4.6-7.7-7.7-7.7c-1.3,0-2.6,0.3-3.8,1.1l-8.4,4.8
			l-3.2-1.8l10-5.8c1.7-1,3.5-1.5,5.4-1.5C92.8,44.6,98.5,48.8,98.5,55.5z"/>
		<path class="st1" d="M99.6,43.1c3.4,3.2,5.2,7.6,5.2,12.4c0,6.2-3.2,11.8-8.6,14.9c-5.4,3.1-11.8,3.1-17.2,0l-8.5-4.9v-3.6l10,5.8
			c2.2,1.3,4.6,1.9,7,1.9c3.6,0,7.2-1.5,9.8-4c2.8-2.6,4.3-6.2,4.3-10.1c0-8.7-7.3-14.1-14.1-14.1c-2.4,0-4.8,0.6-7,1.9l-10,5.8
			v-3.6l8.5-4.9c2.7-1.5,5.6-2.3,8.6-2.3C92,38.2,96.4,40,99.6,43.1z"/>
		<path class="st1" d="M67.4,43.8v44c0,0.7-0.6,1.3-1.3,1.3h-0.2c-0.7,0-1.3-0.6-1.3-1.3V67.2V43.8c0-0.7,0.6-1.3,1.3-1.3h0.2
			C66.8,42.5,67.4,43.1,67.4,43.8z"/>
		<path class="st1" d="M61.4,43.8v23.4c0,0.7-0.6,1.3-1.3,1.3h-0.2c-0.7,0-1.3-0.6-1.3-1.3V43.8c0-0.7,0.6-1.3,1.3-1.3h0.2
			C60.8,42.5,61.4,43.1,61.4,43.8z"/>
		<path class="st1" d="M55.4,43.8v23.4c0,0.7-0.6,1.3-1.3,1.3h-0.2c-0.7,0-1.3-0.6-1.3-1.3V43.8c0-0.7,0.6-1.3,1.3-1.3h0.2
			C54.8,42.5,55.4,43.1,55.4,43.8z"/>
		<path class="st1" d="M49.4,54.5v3.6l-11.6,6.7c-1.7,1-3.5,1.5-5.4,1.5c-5.2,0-10.9-4.2-10.9-10.9s5.7-10.9,10.9-10.9
			c1.9,0,3.7,0.5,5.4,1.5l9.9,5.7l-3.2,1.8l-8.4-4.8c-1.2-0.7-2.5-1.1-3.8-1.1c-3.1,0-7.7,2.5-7.7,7.7s4.6,7.7,7.7,7.7
			c1.3,0,2.6-0.3,3.8-1.1L49.4,54.5z"/>
		<path class="st1" d="M49.4,61.9v3.6L41,70.4c-2.7,1.5-5.6,2.3-8.6,2.3c-4.4,0-8.8-1.8-12-4.9c-3.4-3.2-5.2-7.6-5.2-12.4
			c0-6.2,3.2-11.8,8.6-14.9c5.4-3.1,11.8-3.1,17.2,0l8.5,4.9v3.6l-10-5.8c-2.2-1.3-4.6-1.9-7-1.9c-6.8,0-14.1,5.4-14.1,14.1
			c0,8.7,7.3,14.1,14.1,14.1c2.4,0,4.8-0.6,7-1.9L49.4,61.9z"/>
		<path class="st2" d="M101.8,40.8c4,3.8,6.2,9.1,6.2,14.7c0,7.4-3.8,14-10.2,17.7c-3.2,1.8-6.7,2.8-10.2,2.8c-3.5,0-7-0.9-10.2-2.8
			l-6.9-4v18.6c0,2.5-2,4.5-4.5,4.5h-0.2c-2.5,0-4.5-2-4.5-4.5V71.5c-0.4,0.1-0.9,0.2-1.3,0.2h-0.2c-1.1,0-2.1-0.4-2.9-1.1
			c-0.8,0.7-1.8,1.1-2.9,1.1h-0.2c-1.8,0-3.4-1.1-4.1-2.7l-7.2,4.2c-3.1,1.8-6.6,2.8-10.2,2.8c-5.2,0-10.4-2.1-14.2-5.7
			c-4-3.9-6.2-9.1-6.2-14.7c0-7.4,3.8-14,10.2-17.7c6.4-3.7,14-3.7,20.4,0l7.2,4.2c0.7-1.6,2.3-2.7,4.1-2.7h0.2
			c1.1,0,2.1,0.4,2.9,1.1c0.8-0.7,1.8-1.1,2.9-1.1h0.2c1.1,0,2.1,0.4,2.9,1.1c0.8-0.7,1.8-1.1,2.9-1.1h0.2c1.8,0,3.4,1.1,4.1,2.7
			l7.2-4.2C80.6,36,84.1,35,87.6,35C92.8,35,98,37.1,101.8,40.8z M104.9,55.5c0-4.7-1.9-9.1-5.2-12.4c-3.2-3.1-7.6-4.9-12-4.9
			c-3,0-5.9,0.8-8.6,2.3l-8.5,4.9v3.6l10-5.8c2.2-1.3,4.6-1.9,7-1.9c6.8,0,14.1,5.4,14.1,14.1c0,3.9-1.5,7.5-4.3,10.1
			c-2.6,2.5-6.2,4-9.8,4c-2.4,0-4.8-0.6-7-1.9l-10-5.8v3.6l8.5,4.9c5.4,3.1,11.8,3.1,17.2,0C101.6,67.3,104.9,61.7,104.9,55.5z
			 M95.2,63.3c2.1-2,3.3-4.8,3.3-7.8c0-6.7-5.7-10.9-10.9-10.9c-1.9,0-3.7,0.5-5.4,1.5l-10,5.8l3.2,1.8l8.4-4.8
			c1.2-0.7,2.5-1.1,3.8-1.1c3.1,0,7.7,2.5,7.7,7.7c0,2.2-0.8,4.1-2.3,5.5c-1.4,1.4-3.5,2.2-5.4,2.2h0c-1.3,0-2.6-0.3-3.8-1.1
			l-13.2-7.6v3.6l11.6,6.7c1.7,1,3.5,1.5,5.4,1.5C90.4,66.4,93.2,65.3,95.2,63.3z M90.8,58.7c0.9-0.8,1.3-1.9,1.3-3.2
			c0-3.4-3.1-4.5-4.5-4.5c-0.8,0-1.5,0.2-2.2,0.6l-6.8,3.9l6.8,3.9c0.7,0.4,1.5,0.6,2.2,0.6h0C88.7,60,90,59.5,90.8,58.7z
			 M67.4,87.8v-44c0-0.7-0.6-1.3-1.3-1.3h-0.2c-0.7,0-1.3,0.6-1.3,1.3v23.4v20.7c0,0.7,0.6,1.3,1.3,1.3h0.2
			C66.8,89.2,67.4,88.6,67.4,87.8z M61.4,67.2V43.8c0-0.7-0.6-1.3-1.3-1.3h-0.2c-0.7,0-1.3,0.6-1.3,1.3v23.4c0,0.7,0.6,1.3,1.3,1.3
			h0.2C60.8,68.5,61.4,67.9,61.4,67.2z M55.4,67.2V43.8c0-0.7-0.6-1.3-1.3-1.3h-0.2c-0.7,0-1.3,0.6-1.3,1.3v23.4
			c0,0.7,0.6,1.3,1.3,1.3h0.2C54.8,68.5,55.4,67.9,55.4,67.2z M49.4,65.5v-3.6l-10,5.8c-2.2,1.3-4.6,1.9-7,1.9
			c-6.8,0-14.1-5.4-14.1-14.1c0-8.7,7.3-14.1,14.1-14.1c2.4,0,4.8,0.6,7,1.9l10,5.8v-3.6L41,40.6c-5.4-3.1-11.8-3.1-17.2,0
			c-5.4,3.1-8.6,8.7-8.6,14.9c0,4.7,1.9,9.1,5.2,12.4c3.2,3.1,7.6,4.9,12,4.9c3,0,5.9-0.8,8.6-2.3L49.4,65.5z M49.4,58.2v-3.6
			l-13.2,7.6c-1.2,0.7-2.5,1.1-3.8,1.1c-3.1,0-7.7-2.5-7.7-7.7s4.6-7.7,7.7-7.7c1.3,0,2.6,0.3,3.8,1.1l8.4,4.8l3.2-1.8l-9.9-5.7
			c-1.7-1-3.5-1.5-5.4-1.5c-5.2,0-10.9,4.2-10.9,10.9s5.7,10.9,10.9,10.9c1.9,0,3.7-0.5,5.4-1.5L49.4,58.2z M34.6,59.4l6.8-3.9
			l-6.8-3.9c-0.7-0.4-1.5-0.6-2.2-0.6c-1.4,0-4.5,1.1-4.5,4.5c0,3.4,3.1,4.5,4.5,4.5C33.2,60,33.9,59.8,34.6,59.4z"/>
	</g>
</g>
</svg>
