<?xml version="1.0" encoding="utf-8"?>
<!-- Generator: Adobe Illustrator 23.0.3, SVG Export Plug-In . SVG Version: 6.00 Build 0)  -->
<svg version="1.1" id="Livello_1" xmlns="http://www.w3.org/2000/svg" xmlns:xlink="http://www.w3.org/1999/xlink" x="0px" y="0px"
	 viewBox="0 0 120 120" style="enable-background:new 0 0 120 120;" xml:space="preserve">
<style type="text/css">
	.st0{fill:#4DA0AE;}
	.st1{fill:#5EBCD0;}
	.st2{fill:#509EAE;}
	.st3{fill:#858EA4;}
	.st4{fill:#71788A;}
	.st5{fill:#C6E5E4;}
	.st6{fill:#85CEDF;}
</style>
<g>
	<circle class="st0" cx="60" cy="60" r="55"/>
	<g>
		<path class="st1" d="M41.4,47.5V87c0,0.8,0.5,1.5,1.2,1.5H55c0.6,0,1.2-0.6,1.2-1.5V37c0-1.2-1.1-1.8-1.9-1.2L41.9,46.3
			C41.6,46.6,41.4,47.1,41.4,47.5z"/>
		<path class="st2" d="M41.4,47.5V87c0,0.8,0.5,1.5,1.2,1.5h6.1V40.5l-6.9,5.9C41.6,46.6,41.4,47.1,41.4,47.5z"/>
		<path class="st1" d="M70.7,18.4L70.7,18.4c-4.2,0-7.6,4-7.6,9v60.1h15.3V27.4C78.4,22.4,74.9,18.4,70.7,18.4z"/>
		<path class="st2" d="M70.7,18.4L70.7,18.4c-4.2,0-7.6,4-7.6,9v60.1h7.6V18.4z"/>
		<path class="st3" d="M82.4,86.8h-46c-1.3,0-2.3,1.2-2.3,2.8c0,1.5,1,2.8,2.3,2.8h46.1c1.3,0,2.3-1.2,2.3-2.8
			C84.8,88,83.7,86.8,82.4,86.8z"/>
		<path class="st4" d="M59.4,86.8h-23c-1.3,0-2.3,1.2-2.3,2.8c0,1.5,1,2.8,2.3,2.8h23L59.4,86.8L59.4,86.8z"/>
		<g>
			<path class="st5" d="M70.7,36.2c-1.3,0-2.3-1.2-2.3-2.8v-2.3c0-1.5,1-2.8,2.3-2.8s2.3,1.2,2.3,2.8v2.3
				C73.1,34.9,72,36.2,70.7,36.2z"/>
			<path class="st6" d="M70.7,36.2c-1.3,0-2.3-1.2-2.3-2.8v-2.3c0-1.5,1-2.8,2.3-2.8V36.2z"/>
		</g>
		<g>
			<path class="st5" d="M70.7,49.3c-1.3,0-2.3-1.2-2.3-2.8v-2.3c0-1.5,1-2.8,2.3-2.8s2.3,1.2,2.3,2.8v2.3
				C73.1,48.1,72,49.3,70.7,49.3z"/>
			<path class="st6" d="M70.7,49.3c-1.3,0-2.3-1.2-2.3-2.8v-2.3c0-1.5,1-2.8,2.3-2.8V49.3z"/>
		</g>
		<g>
			<path class="st5" d="M70.7,62.5c-1.3,0-2.3-1.2-2.3-2.8v-2.3c0-1.5,1-2.8,2.3-2.8s2.3,1.2,2.3,2.8v2.3
				C73.1,61.3,72,62.5,70.7,62.5z"/>
			<path class="st6" d="M70.7,62.5c-1.3,0-2.3-1.2-2.3-2.8v-2.3c0-1.5,1-2.8,2.3-2.8V62.5z"/>
		</g>
		<g>
			<path class="st5" d="M70.7,75.7c-1.3,0-2.3-1.2-2.3-2.8v-2.3c0-1.5,1-2.8,2.3-2.8s2.3,1.2,2.3,2.8v2.3
				C73.1,74.4,72,75.7,70.7,75.7z"/>
			<path class="st6" d="M70.7,75.7c-1.3,0-2.3-1.2-2.3-2.8v-2.3c0-1.5,1-2.8,2.3-2.8V75.7z"/>
		</g>
		<path class="st5" d="M48.7,56.1c-1.3,0-2.3-1.2-2.3-2.8v-2.3c0-1.5,1-2.8,2.3-2.8c1.3,0,2.3,1.2,2.3,2.8v2.3
			C51.1,55,50,56.1,48.7,56.1z"/>
		<path class="st6" d="M48.7,56.1c-1.3,0-2.3-1.2-2.3-2.8v-2.3c0-1.5,1-2.8,2.3-2.8V56.1z"/>
		<path class="st5" d="M48.7,68.3c-1.3,0-2.3-1.2-2.3-2.8v-2.3c0-1.5,1-2.8,2.3-2.8c1.3,0,2.3,1.2,2.3,2.8v2.3
			C51.1,67.2,50,68.3,48.7,68.3z"/>
		<path class="st6" d="M48.7,68.3c-1.3,0-2.3-1.2-2.3-2.8v-2.3c0-1.5,1-2.8,2.3-2.8V68.3z"/>
		<path class="st5" d="M48.7,80.4c-1.3,0-2.3-1.2-2.3-2.8v-2.3c0-1.5,1-2.8,2.3-2.8c1.3,0,2.3,1.2,2.3,2.8v2.3
			C51.1,79.3,50,80.4,48.7,80.4z"/>
		<path class="st6" d="M48.7,80.4c-1.3,0-2.3-1.2-2.3-2.8v-2.3c0-1.5,1-2.8,2.3-2.8V80.4z"/>
	</g>
</g>
</svg>
