<?xml version="1.0" encoding="utf-8"?>
<!-- Generator: Adobe Illustrator 23.0.3, SVG Export Plug-In . SVG Version: 6.00 Build 0)  -->
<svg version="1.1" id="Livello_1" xmlns="http://www.w3.org/2000/svg" xmlns:xlink="http://www.w3.org/1999/xlink" x="0px" y="0px"
	 viewBox="0 0 120 120" style="enable-background:new 0 0 120 120;" xml:space="preserve">
<style type="text/css">
	.st0{fill:#4DA0AE;}
	.st1{fill:#5EBCD0;}
	.st2{fill:#509EAE;}
	.st3{fill:#858EA4;}
	.st4{fill:#71788A;}
	.st5{fill:#C6E5E4;}
	.st6{fill:#85CEDF;}
</style>
<g>
	<circle class="st0" cx="60" cy="60" r="60"/>
	<g>
		<path class="st1" d="M39.7,46.4v43c0,0.9,0.6,1.6,1.3,1.6h13.5c0.7,0,1.3-0.7,1.3-1.6V34.9c0-1.3-1.2-2-2.1-1.3L40.2,45.1
			C39.9,45.4,39.7,45.9,39.7,46.4z"/>
		<path class="st2" d="M39.7,46.4v43c0,0.9,0.6,1.6,1.3,1.6h6.7V38.7l-7.5,6.4C39.9,45.4,39.7,45.9,39.7,46.4z"/>
		<path class="st1" d="M71.7,14.6L71.7,14.6c-4.6,0-8.3,4.4-8.3,9.8v65.6h16.7V24.4C80.1,19,76.3,14.6,71.7,14.6z"/>
		<path class="st2" d="M71.7,14.6L71.7,14.6c-4.6,0-8.3,4.4-8.3,9.8v65.6h8.3V14.6z"/>
		<path class="st3" d="M84.4,89.2H34.2c-1.4,0-2.5,1.3-2.5,3c0,1.6,1.1,3,2.5,3h50.3c1.4,0,2.5-1.3,2.5-3
			C87,90.5,85.8,89.2,84.4,89.2z"/>
		<path class="st4" d="M59.3,89.2H34.2c-1.4,0-2.5,1.3-2.5,3c0,1.6,1.1,3,2.5,3h25.1L59.3,89.2L59.3,89.2z"/>
		<g>
			<path class="st5" d="M71.7,34c-1.4,0-2.5-1.3-2.5-3v-2.5c0-1.6,1.1-3,2.5-3s2.5,1.3,2.5,3V31C74.3,32.6,73.1,34,71.7,34z"/>
			<path class="st6" d="M71.7,34c-1.4,0-2.5-1.3-2.5-3v-2.5c0-1.6,1.1-3,2.5-3V34z"/>
		</g>
		<g>
			<path class="st5" d="M71.7,48.3c-1.4,0-2.5-1.3-2.5-3v-2.5c0-1.6,1.1-3,2.5-3s2.5,1.3,2.5,3v2.5C74.3,47,73.1,48.3,71.7,48.3z"/>
			<path class="st6" d="M71.7,48.3c-1.4,0-2.5-1.3-2.5-3v-2.5c0-1.6,1.1-3,2.5-3V48.3z"/>
		</g>
		<g>
			<path class="st5" d="M71.7,62.7c-1.4,0-2.5-1.3-2.5-3v-2.5c0-1.6,1.1-3,2.5-3s2.5,1.3,2.5,3v2.5C74.3,61.4,73.1,62.7,71.7,62.7z"
				/>
			<path class="st6" d="M71.7,62.7c-1.4,0-2.5-1.3-2.5-3v-2.5c0-1.6,1.1-3,2.5-3V62.7z"/>
		</g>
		<g>
			<path class="st5" d="M71.7,77.1c-1.4,0-2.5-1.3-2.5-3v-2.5c0-1.6,1.1-3,2.5-3s2.5,1.3,2.5,3v2.5C74.3,75.7,73.1,77.1,71.7,77.1z"
				/>
			<path class="st6" d="M71.7,77.1c-1.4,0-2.5-1.3-2.5-3v-2.5c0-1.6,1.1-3,2.5-3V77.1z"/>
		</g>
		<path class="st5" d="M47.7,55.8c-1.4,0-2.5-1.3-2.5-3v-2.5c0-1.6,1.1-3,2.5-3c1.4,0,2.5,1.3,2.5,3v2.5
			C50.3,54.5,49.1,55.8,47.7,55.8z"/>
		<path class="st6" d="M47.7,55.8c-1.4,0-2.5-1.3-2.5-3v-2.5c0-1.6,1.1-3,2.5-3V55.8z"/>
		<path class="st5" d="M47.7,69.1c-1.4,0-2.5-1.3-2.5-3v-2.5c0-1.6,1.1-3,2.5-3c1.4,0,2.5,1.3,2.5,3v2.5
			C50.3,67.8,49.1,69.1,47.7,69.1z"/>
		<path class="st6" d="M47.7,69.1c-1.4,0-2.5-1.3-2.5-3v-2.5c0-1.6,1.1-3,2.5-3V69.1z"/>
		<path class="st5" d="M47.7,82.3c-1.4,0-2.5-1.3-2.5-3v-2.5c0-1.6,1.1-3,2.5-3c1.4,0,2.5,1.3,2.5,3v2.5
			C50.3,81,49.1,82.3,47.7,82.3z"/>
		<path class="st6" d="M47.7,82.3c-1.4,0-2.5-1.3-2.5-3v-2.5c0-1.6,1.1-3,2.5-3V82.3z"/>
	</g>
</g>
</svg>
