<?xml version="1.0" encoding="utf-8"?>
<!-- Generator: Adobe Illustrator 23.0.3, SVG Export Plug-In . SVG Version: 6.00 Build 0)  -->
<svg version="1.1" id="Livello_1" xmlns="http://www.w3.org/2000/svg" xmlns:xlink="http://www.w3.org/1999/xlink" x="0px" y="0px"
	 viewBox="0 0 120 120" style="enable-background:new 0 0 120 120;" xml:space="preserve">
<style type="text/css">
	.st0{fill:#4DA0AE;}
	.st1{fill:#020203;}
</style>
<g>
	<circle class="st0" cx="60" cy="60" r="55"/>
</g>
<g>
	<path class="st1" d="M35.1,43.5c4.7,0,9.2-1.9,12.4-5.2c3.2,3.3,7.7,5.2,12.4,5.2s9.2-1.9,12.4-5.2c3.2,3.3,7.7,5.2,12.4,5.2
		c6.2,0,12-3.4,15.1-8.7c0.9-1.5,0.4-3.4-1.2-4.3c-1.5-0.9-3.4-0.4-4.3,1.2c-2,3.4-5.7,5.6-9.7,5.6s-7.7-2.1-9.7-5.6
		c-0.6-1-1.6-1.6-2.7-1.6s-2.2,0.6-2.7,1.6c-2,3.4-5.7,5.6-9.7,5.6s-7.7-2.1-9.7-5.6c-0.6-1-1.6-1.6-2.7-1.6l0,0
		c-1.1,0-2.2,0.6-2.7,1.6c-2,3.4-5.7,5.6-9.7,5.6s-7.7-2.1-9.7-5.6c-0.9-1.5-2.8-2-4.3-1.2c-1.5,0.9-2,2.8-1.2,4.3
		C23.1,40.2,28.9,43.5,35.1,43.5z"/>
	<path class="st1" d="M98.8,53.6c-1.5-0.9-3.4-0.4-4.3,1.2c-2,3.4-5.7,5.6-9.7,5.6s-7.7-2.1-9.7-5.6c-0.6-1-1.6-1.6-2.7-1.6
		s-2.2,0.6-2.7,1.6c-2,3.4-5.7,5.6-9.7,5.6s-7.7-2.1-9.7-5.6c-0.6-1-1.6-1.6-2.7-1.6l0,0c-1.1,0-2.2,0.6-2.7,1.6
		c-2,3.4-5.7,5.6-9.7,5.6s-7.7-2.1-9.7-5.6c-0.9-1.5-2.8-2-4.3-1.2c-1.5,0.9-2,2.8-1.2,4.3c3.1,5.4,8.9,8.7,15.2,8.7
		c4.7,0,9.2-1.9,12.4-5.2c3.2,3.3,7.7,5.2,12.4,5.2s9.2-1.9,12.4-5.2c3.2,3.3,7.7,5.2,12.4,5.2c6.2,0,12-3.4,15.1-8.7
		C100.8,56.4,100.3,54.5,98.8,53.6z"/>
	<path class="st1" d="M98.8,76.8c-1.5-0.9-3.4-0.4-4.3,1.2c-2,3.4-5.7,5.6-9.7,5.6s-7.7-2.1-9.7-5.6c-0.6-1-1.6-1.6-2.7-1.6
		S70.2,77,69.7,78c-2,3.4-5.7,5.6-9.7,5.6s-7.7-2.1-9.7-5.6c-0.6-1-1.6-1.6-2.7-1.6l0,0c-1.1,0-2.2,0.6-2.7,1.6
		c-2,3.4-5.7,5.6-9.7,5.6s-7.7-2.1-9.7-5.6c-0.9-1.5-2.8-2-4.3-1.2c-1.5,0.9-2,2.8-1.2,4.3c3.1,5.4,8.9,8.7,15.2,8.7
		c4.7,0,9.2-1.9,12.4-5.2c3.2,3.3,7.7,5.2,12.4,5.2s9.2-1.9,12.4-5.2c3.2,3.3,7.7,5.2,12.4,5.2c6.2,0,12-3.4,15.1-8.7
		C100.8,79.6,100.3,77.6,98.8,76.8z"/>
</g>
</svg>
