<?xml version="1.0" encoding="utf-8"?>
<!-- Generator: Adobe Illustrator 23.0.3, SVG Export Plug-In . SVG Version: 6.00 Build 0)  -->
<svg version="1.1" id="Livello_1" xmlns="http://www.w3.org/2000/svg" xmlns:xlink="http://www.w3.org/1999/xlink" x="0px" y="0px"
	 viewBox="0 0 115 115" style="enable-background:new 0 0 115 115;" xml:space="preserve">
<style type="text/css">
	.st0{fill:#4DA0AE;}
	.st1{fill:#C4E5EE;}
	.st2{fill:#B3D8F4;}
	.st3{fill:#8DB6E2;}
	.st4{fill:#898991;}
	.st5{fill:#90D1E0;}
</style>
<g>
	<circle class="st0" cx="57.5" cy="57.5" r="57.5"/>
	<path class="st1" d="M88.6,47.1l-9.9-5.8c-1-0.6-2.1-0.6-3.1,0l-5.4,3.3v-8.5c0-1.6-1.3-3-3-3h-6.9v-4.9c0-1.6-1.3-3-3-3
		s-3,1.3-3,3V33h-6.9l0,0c-0.8,0-1.5,0.3-2.1,0.9c-0.6,0.6-0.9,1.3-0.9,2.1v8.5l-5.3-3.3c-1-0.6-2.1-0.6-3.1,0l-9.9,5.9
		c-0.9,0.6-1.4,1.5-1.4,2.5V87c0,1.6,1.3,3,3,3h19.6l0,0l0,0h10h9.9l0,0l0,0H87c1.6,0,3-1.3,3-3V49.6C90,48.6,89.4,47.6,88.6,47.1z"
		/>
	<path id="SVGCleanerId_0" class="st2" d="M70.3,87c0,1.6-1.3,3-3,3l0,0H87c1.6,0,3-1.3,3-3V49.6c0-1.1-0.6-2-1.4-2.5l-9.9-5.9
		c-1-0.6-2.1-0.6-3.1,0l-5.4,3.3v3.5L70.3,87L70.3,87z"/>
	<path id="SVGCleanerId_1" class="st3" d="M28,90h19.6l0,0c-1.6,0-3-1.3-3-3V47.8v-3.5l-5.4-3.2c-1-0.6-2.1-0.6-3.1,0l-9.9,5.9
		c-0.9,0.6-1.4,1.5-1.4,2.5V87C25,88.6,26.4,90,28,90z"/>
	<path id="SVGCleanerId_2" class="st4" d="M60.5,32.9V28c0-1.6-1.3-3-3-3s-3,1.3-3,3v4.9h3H60.5z"/>
	<path id="SVGCleanerId_3" class="st5" d="M54.5,32.9h-6.9l0,0c-0.8,0-1.5,0.3-2.1,0.9c-0.6,0.6-0.9,1.3-0.9,2.1v8.5v3.5V87
		c0,1.6,1.3,3,3,3l0,0h9.9V32.9H54.5z"/>
	<path class="st1" d="M67.4,32.9h-6.9h-3V90h9.9l0,0c1.6,0,3-1.3,3-3V47.8v-3.5v-8.5C70.3,34.2,69,32.9,67.4,32.9z"/>
	<g>
		<path id="SVGCleanerId_0_1_" class="st2" d="M70.3,87c0,1.6-1.3,3-3,3l0,0H87c1.6,0,3-1.3,3-3V49.6c0-1.1-0.6-2-1.4-2.5l-9.9-5.9
			c-1-0.6-2.1-0.6-3.1,0l-5.4,3.3v3.5L70.3,87L70.3,87z"/>
	</g>
	<g>
		<path id="SVGCleanerId_1_1_" class="st3" d="M28,90h19.6l0,0c-1.6,0-3-1.3-3-3V47.8v-3.5l-5.4-3.2c-1-0.6-2.1-0.6-3.1,0l-9.9,5.9
			c-0.9,0.6-1.4,1.5-1.4,2.5V87C25,88.6,26.4,90,28,90z"/>
	</g>
	<g>
		<path id="SVGCleanerId_2_1_" class="st4" d="M60.5,32.9V28c0-1.6-1.3-3-3-3s-3,1.3-3,3v4.9h3H60.5z"/>
	</g>
	<g>
		<path id="SVGCleanerId_3_1_" class="st5" d="M54.5,32.9h-6.9l0,0c-0.8,0-1.5,0.3-2.1,0.9c-0.6,0.6-0.9,1.3-0.9,2.1v8.5v3.5V87
			c0,1.6,1.3,3,3,3l0,0h9.9V32.9H54.5z"/>
	</g>
</g>
</svg>
