<?xml version="1.0" encoding="utf-8"?>
<!-- Generator: Adobe Illustrator 23.0.3, SVG Export Plug-In . SVG Version: 6.00 Build 0)  -->
<svg version="1.1" id="Livello_1" xmlns="http://www.w3.org/2000/svg" xmlns:xlink="http://www.w3.org/1999/xlink" x="0px" y="0px"
	 viewBox="0 0 120 120" style="enable-background:new 0 0 120 120;" xml:space="preserve">
<style type="text/css">
	.st0{fill:#4DA0AE;}
	.st1{fill:#C4E5EE;}
	.st2{fill:#B3D8F4;}
	.st3{fill:#8DB6E2;}
	.st4{fill:#898991;}
	.st5{fill:#90D1E0;}
</style>
<g>
	<circle class="st0" cx="60" cy="60" r="60"/>
	<path class="st1" d="M92.4,49.1L82.1,43c-1-0.6-2.2-0.6-3.2,0l-5.6,3.4v-8.9c0-1.7-1.4-3.1-3.1-3.1l-7.2,0v-5.1
		c0-1.7-1.4-3.1-3.1-3.1c-1.7,0-3.1,1.4-3.1,3.1v5.1l-7.2,0c0,0,0,0,0,0c-0.8,0-1.6,0.3-2.2,0.9c-0.6,0.6-0.9,1.4-0.9,2.2v8.9L41,43
		c-1-0.6-2.2-0.6-3.2,0l-10.3,6.2c-0.9,0.6-1.5,1.6-1.5,2.6v39c0,1.7,1.4,3.1,3.1,3.1h20.5c0,0,0,0,0,0h0H60h10.3c0,0,0,0,0,0
		c0,0,0,0,0,0h20.5c1.7,0,3.1-1.4,3.1-3.1v-39C93.9,50.7,93.3,49.7,92.4,49.1z"/>
	<path id="SVGCleanerId_0" class="st2" d="M73.4,90.8c0,1.7-1.4,3.1-3.1,3.1c0,0,0,0,0,0h20.5c1.7,0,3.1-1.4,3.1-3.1v-39
		c0-1.1-0.6-2.1-1.5-2.6L82.1,43c-1-0.6-2.2-0.6-3.2,0l-5.6,3.4v3.6L73.4,90.8L73.4,90.8z"/>
	<path id="SVGCleanerId_1" class="st3" d="M29.2,93.9h20.5c0,0,0,0,0,0c-1.7,0-3.1-1.4-3.1-3.1V49.9v-3.6L41,43
		c-1-0.6-2.2-0.6-3.2,0l-10.3,6.2c-0.9,0.6-1.5,1.6-1.5,2.6v39C26.1,92.5,27.5,93.9,29.2,93.9z"/>
	<path id="SVGCleanerId_2" class="st4" d="M63.1,34.3v-5.1c0-1.7-1.4-3.1-3.1-3.1c-1.7,0-3.1,1.4-3.1,3.1v5.1l3.1,0L63.1,34.3z"/>
	<path id="SVGCleanerId_3" class="st5" d="M56.9,34.3l-7.2,0c0,0,0,0,0,0c-0.8,0-1.6,0.3-2.2,0.9c-0.6,0.6-0.9,1.4-0.9,2.2v8.9v3.6
		v40.9c0,1.7,1.4,3.1,3.1,3.1h0H60V34.3L56.9,34.3z"/>
	<path class="st1" d="M70.3,34.3l-7.2,0l-3.1,0v59.6h10.3c0,0,0,0,0,0c1.7,0,3.1-1.4,3.1-3.1V49.9v-3.6v-8.9
		C73.4,35.7,72,34.3,70.3,34.3z"/>
	<g>
		<path id="SVGCleanerId_0_1_" class="st2" d="M73.4,90.8c0,1.7-1.4,3.1-3.1,3.1c0,0,0,0,0,0h20.5c1.7,0,3.1-1.4,3.1-3.1v-39
			c0-1.1-0.6-2.1-1.5-2.6L82.1,43c-1-0.6-2.2-0.6-3.2,0l-5.6,3.4v3.6L73.4,90.8L73.4,90.8z"/>
	</g>
	<g>
		<path id="SVGCleanerId_1_1_" class="st3" d="M29.2,93.9h20.5c0,0,0,0,0,0c-1.7,0-3.1-1.4-3.1-3.1V49.9v-3.6L41,43
			c-1-0.6-2.2-0.6-3.2,0l-10.3,6.2c-0.9,0.6-1.5,1.6-1.5,2.6v39C26.1,92.5,27.5,93.9,29.2,93.9z"/>
	</g>
	<g>
		<path id="SVGCleanerId_2_1_" class="st4" d="M63.1,34.3v-5.1c0-1.7-1.4-3.1-3.1-3.1c-1.7,0-3.1,1.4-3.1,3.1v5.1l3.1,0L63.1,34.3z"
			/>
	</g>
	<g>
		<path id="SVGCleanerId_3_1_" class="st5" d="M56.9,34.3l-7.2,0c0,0,0,0,0,0c-0.8,0-1.6,0.3-2.2,0.9c-0.6,0.6-0.9,1.4-0.9,2.2v8.9
			v3.6v40.9c0,1.7,1.4,3.1,3.1,3.1h0H60V34.3L56.9,34.3z"/>
	</g>
</g>
</svg>
