<?xml version="1.0" encoding="utf-8"?>
<!-- Generator: Adobe Illustrator 23.0.3, SVG Export Plug-In . SVG Version: 6.00 Build 0)  -->
<svg version="1.1" id="Livello_1" xmlns="http://www.w3.org/2000/svg" xmlns:xlink="http://www.w3.org/1999/xlink" x="0px" y="0px"
	 viewBox="0 0 120 120" style="enable-background:new 0 0 120 120;" xml:space="preserve">
<style type="text/css">
	.st0{fill:#4DA0AE;}
	.st1{fill:#C4E5EE;}
	.st2{fill:#B3D8F4;}
	.st3{fill:#8DB6E2;}
	.st4{fill:#898991;}
	.st5{fill:#90D1E0;}
</style>
<g>
	<circle class="st0" cx="55" cy="55" r="55"/>
	<path class="st1" d="M84.7,45.1l-9.5-5.5c-1-0.6-2-0.6-3,0l-5.2,3.2v-8.1c0-1.5-1.2-2.9-2.9-2.9h-6.6V27c0-1.5-1.2-2.9-2.9-2.9
		c-1.6,0-2.9,1.2-2.9,2.9v4.6h-6.6l0,0c-0.8,0-1.4,0.3-2,0.9c-0.6,0.6-0.9,1.2-0.9,2v8.1l-5.1-3.2c-1-0.6-2-0.6-3,0L25,45.1
		c-0.9,0.6-1.3,1.4-1.3,2.4v35.8c0,1.5,1.2,2.9,2.9,2.9h18.7l0,0l0,0h9.6h9.5l0,0l0,0h18.9c1.5,0,2.9-1.2,2.9-2.9V47.4
		C86.1,46.5,85.5,45.5,84.7,45.1z"/>
	<path id="SVGCleanerId_0" class="st2" d="M67.2,83.2c0,1.5-1.2,2.9-2.9,2.9l0,0h18.8c1.5,0,2.9-1.2,2.9-2.9V47.4
		c0-1.1-0.6-1.9-1.3-2.4l-9.5-5.6c-1-0.6-2-0.6-3,0l-5.2,3.2v3.3L67.2,83.2L67.2,83.2z"/>
	<path id="SVGCleanerId_1" class="st3" d="M26.8,86.1h18.7l0,0c-1.5,0-2.9-1.2-2.9-2.9V45.7v-3.3l-5.2-3.1c-1-0.6-2-0.6-3,0L25.1,45
		c-0.9,0.6-1.3,1.4-1.3,2.4v35.9C23.9,84.7,25.3,86.1,26.8,86.1z"/>
	<path id="SVGCleanerId_2" class="st4" d="M57.9,31.5v-4.7c0-1.5-1.2-2.9-2.9-2.9s-2.9,1.2-2.9,2.9v4.7H55H57.9z"/>
	<path id="SVGCleanerId_3" class="st5" d="M52.1,31.5h-6.6l0,0c-0.8,0-1.4,0.3-2,0.9c-0.6,0.6-0.9,1.2-0.9,2v8.1v3.3v37.4
		c0,1.5,1.2,2.9,2.9,2.9l0,0H55V31.5H52.1z"/>
	<path class="st1" d="M64.5,31.5h-6.6H55v54.6h9.5l0,0c1.5,0,2.9-1.2,2.9-2.9V45.7v-3.3v-8.1C67.2,32.7,66,31.5,64.5,31.5z"/>
	<g>
		<path id="SVGCleanerId_0_1_" class="st2" d="M67.2,83.2c0,1.5-1.2,2.9-2.9,2.9l0,0h18.8c1.5,0,2.9-1.2,2.9-2.9V47.4
			c0-1.1-0.6-1.9-1.3-2.4l-9.5-5.6c-1-0.6-2-0.6-3,0l-5.2,3.2v3.3L67.2,83.2L67.2,83.2z"/>
	</g>
	<g>
		<path id="SVGCleanerId_1_1_" class="st3" d="M26.8,86.1h18.7l0,0c-1.5,0-2.9-1.2-2.9-2.9V45.7v-3.3l-5.2-3.1c-1-0.6-2-0.6-3,0
			L25.1,45c-0.9,0.6-1.3,1.4-1.3,2.4v35.9C23.9,84.7,25.3,86.1,26.8,86.1z"/>
	</g>
	<g>
		<path id="SVGCleanerId_2_1_" class="st4" d="M57.9,31.5v-4.7c0-1.5-1.2-2.9-2.9-2.9s-2.9,1.2-2.9,2.9v4.7H55H57.9z"/>
	</g>
	<g>
		<path id="SVGCleanerId_3_1_" class="st5" d="M52.1,31.5h-6.6l0,0c-0.8,0-1.4,0.3-2,0.9c-0.6,0.6-0.9,1.2-0.9,2v8.1v3.3v37.4
			c0,1.5,1.2,2.9,2.9,2.9l0,0H55V31.5H52.1z"/>
	</g>
</g>
</svg>
