<?xml version="1.0" encoding="utf-8"?>
<!-- Generator: Adobe Illustrator 23.0.3, SVG Export Plug-In . SVG Version: 6.00 Build 0)  -->
<svg version="1.1" id="Livello_1" xmlns="http://www.w3.org/2000/svg" xmlns:xlink="http://www.w3.org/1999/xlink" x="0px" y="0px"
	 viewBox="0 0 120 120" style="enable-background:new 0 0 120 120;" xml:space="preserve">
<style type="text/css">
	.st0{fill:#4DA0AE;}
	.st1{fill:#C4E5EE;}
	.st2{fill:#B3D8F4;}
	.st3{fill:#8DB6E2;}
	.st4{fill:#898991;}
	.st5{fill:#90D1E0;}
</style>
<g>
	<circle class="st0" cx="60" cy="60" r="55"/>
	<path class="st1" d="M89.7,50.1l-9.5-5.5c-1-0.6-2-0.6-3,0L72,47.8v-8.1c0-1.5-1.2-2.9-2.9-2.9h-6.6V32c0-1.5-1.2-2.9-2.9-2.9
		c-1.6,0-2.9,1.2-2.9,2.9v4.6h-6.6l0,0c-0.8,0-1.4,0.3-2,0.9s-0.9,1.2-0.9,2v8.1l-5.1-3.2c-1-0.6-2-0.6-3,0L30,50.1
		c-0.9,0.6-1.3,1.4-1.3,2.4v35.8c0,1.5,1.2,2.9,2.9,2.9h18.7l0,0l0,0h9.6h9.5l0,0l0,0h18.9c1.5,0,2.9-1.2,2.9-2.9V52.4
		C91.1,51.5,90.5,50.5,89.7,50.1z"/>
	<path id="SVGCleanerId_0" class="st2" d="M72.2,88.2c0,1.5-1.2,2.9-2.9,2.9l0,0h18.8c1.5,0,2.9-1.2,2.9-2.9V52.4
		c0-1.1-0.6-1.9-1.3-2.4l-9.5-5.6c-1-0.6-2-0.6-3,0L72,47.6v3.3L72.2,88.2L72.2,88.2z"/>
	<path id="SVGCleanerId_1" class="st3" d="M31.8,91.1h18.7l0,0c-1.5,0-2.9-1.2-2.9-2.9V50.7v-3.3l-5.2-3.1c-1-0.6-2-0.6-3,0L30.1,50
		c-0.9,0.6-1.3,1.4-1.3,2.4v35.9C28.9,89.7,30.3,91.1,31.8,91.1z"/>
	<path id="SVGCleanerId_2" class="st4" d="M62.9,36.5v-4.7c0-1.5-1.2-2.9-2.9-2.9s-2.9,1.2-2.9,2.9v4.7H60H62.9z"/>
	<path id="SVGCleanerId_3" class="st5" d="M57.1,36.5h-6.6l0,0c-0.8,0-1.4,0.3-2,0.9c-0.6,0.6-0.9,1.2-0.9,2v8.1v3.3v37.4
		c0,1.5,1.2,2.9,2.9,2.9l0,0H60V36.5H57.1z"/>
	<path class="st1" d="M69.5,36.5h-6.6H60v54.6h9.5l0,0c1.5,0,2.9-1.2,2.9-2.9V50.7v-3.3v-8.1C72.2,37.7,71,36.5,69.5,36.5z"/>
	<g>
		<path id="SVGCleanerId_0_1_" class="st2" d="M72.2,88.2c0,1.5-1.2,2.9-2.9,2.9l0,0h18.8c1.5,0,2.9-1.2,2.9-2.9V52.4
			c0-1.1-0.6-1.9-1.3-2.4l-9.5-5.6c-1-0.6-2-0.6-3,0L72,47.6v3.3L72.2,88.2L72.2,88.2z"/>
	</g>
	<g>
		<path id="SVGCleanerId_1_1_" class="st3" d="M31.8,91.1h18.7l0,0c-1.5,0-2.9-1.2-2.9-2.9V50.7v-3.3l-5.2-3.1c-1-0.6-2-0.6-3,0
			L30.1,50c-0.9,0.6-1.3,1.4-1.3,2.4v35.9C28.9,89.7,30.3,91.1,31.8,91.1z"/>
	</g>
	<g>
		<path id="SVGCleanerId_2_1_" class="st4" d="M62.9,36.5v-4.7c0-1.5-1.2-2.9-2.9-2.9s-2.9,1.2-2.9,2.9v4.7H60H62.9z"/>
	</g>
	<g>
		<path id="SVGCleanerId_3_1_" class="st5" d="M57.1,36.5h-6.6l0,0c-0.8,0-1.4,0.3-2,0.9c-0.6,0.6-0.9,1.2-0.9,2v8.1v3.3v37.4
			c0,1.5,1.2,2.9,2.9,2.9l0,0H60V36.5H57.1z"/>
	</g>
</g>
</svg>
