<?xml version="1.0" encoding="utf-8"?>
<!-- Generator: Adobe Illustrator 23.0.3, SVG Export Plug-In . SVG Version: 6.00 Build 0)  -->
<svg version="1.1" id="Layer_1" xmlns="http://www.w3.org/2000/svg" xmlns:xlink="http://www.w3.org/1999/xlink" x="0px" y="0px"
	 viewBox="0 0 120 120" style="enable-background:new 0 0 120 120;" xml:space="preserve">
<style type="text/css">
	.st0{fill:#49A0AE;}
	.st1{fill:#EDC92C;}
	.st2{fill:#F1D250;}
	.st3{fill:#9B7842;}
	.st4{fill:#AE8A50;}
	.st5{fill:#DBBD40;}
	.st6{fill:#F0D359;}
	.st7{fill:#F8DE71;}
	.st8{fill:#3D969F;}
	.st9{fill:#4AA0A5;}
</style>
<circle class="st0" cx="60" cy="60" r="55"/>
<path class="st1" d="M76.2,76.2l13-44c-0.1-0.8-0.8-1.5-1.5-1.5l-44,13c-0.4,0-2,1.4-2.2,1.8c-0.3,0.2-12.4,27.5-12.4,27.5
	c0,0.7,17,17.7,17.7,17.7c0,0,27.4-11.9,27.6-12.2C74.8,78.2,76.2,76.6,76.2,76.2z"/>
<path class="st2" d="M88.8,31.1c-0.2-0.2-0.6-0.5-1-0.5l-44,13c-0.4,0-2,1.4-2.2,1.8c-0.3,0.2-12.4,27.5-12.4,27.5
	c0,0.3,4.4,4.9,8.6,9.1L88.8,31.1z"/>
<path class="st3" d="M44.8,92.1l-8.5-8.5L21,98.8c3.2,3.2,6.8,6,10.7,8.4l13-13C45.4,93.6,45.4,92.7,44.8,92.1z"/>
<g>
	<path class="st4" d="M36.2,83.6l-8.6-8.6L36.2,83.6z"/>
	<path class="st4" d="M36.2,83.6l-8.6-8.6c-0.6-0.6-1.5-0.6-2.1,0l-13,13C15,92,17.8,95.6,21,98.8L36.2,83.6z"/>
</g>
<g>
	<path class="st5" d="M53.8,69c-0.2,0.2-1.5-0.7-1.8-1l0,0c-0.3-0.3-1.2-1.6-1-1.8l37.3-35.6c0.2-0.2,0.7-0.2,1,0.1l0,0
		c0.3,0.3,0.4,0.7,0.1,1L53.8,69z"/>
	<path class="st5" d="M54.6,70.7c-1.8,1.8-4.4,2-5.9,0.6c-1.5-1.5-1.2-4.1,0.6-5.9c1.8-1.8,4.4-2,5.9-0.6
		C56.6,66.3,56.3,68.9,54.6,70.7z"/>
</g>
<g>
	<path class="st6" d="M54,70.2c-1.4,1.4-3.5,1.6-4.7,0.5c-1.2-1.2-1-3.3,0.5-4.7c1.4-1.4,3.5-1.6,4.7-0.5
		C55.6,66.7,55.4,68.8,54,70.2z"/>
	<path class="st6" d="M89.5,31.1c0,0-0.1-0.2-0.2-0.4c-0.2-0.2-0.4-0.2-0.4-0.2L51.7,66.8c-0.2,0.2,0.1,1,0.3,1.1
		c0.2,0.2,0.9,0.5,1.1,0.3L89.5,31.1z"/>
</g>
<path class="st7" d="M89.2,30.7c-0.2-0.2-0.4-0.2-0.4-0.2L53.6,64.9c-1.2-0.4-2.7-0.1-3.8,1c-1.4,1.4-1.6,3.5-0.5,4.7L89.2,30.7z"/>
<path class="st8" d="M46.9,93.9c-0.6,0.6-1.6,0.6-2.3,0L25.9,75.2c-0.6-0.6-0.6-1.6,0-2.3l1.3-1.3c0.6-0.6,1.6-0.6,2.3,0l18.7,18.7
	c0.6,0.6,0.6,1.6,0,2.3L46.9,93.9z"/>
<path class="st9" d="M35.3,84.6l-9.4-9.4c-0.6-0.6-0.6-1.6,0-2.3l1.3-1.3c0.6-0.6,1.6-0.6,2.3,0l9.4,9.4L35.3,84.6z"/>
</svg>
